<svg width="204" height="36" viewBox="0 0 204 37" fill="none" xmlns="http://www.w3.org/2000/svg">
    <path fill-rule="evenodd" clip-rule="evenodd"
        d="M35.5798 21.4104L21.5888 35.5798C20.7723 36.3932 19.6668 36.85 18.5143 36.85C17.3618 36.85 16.2562 36.3932 15.4398 35.5798L1.26979 21.5844C0.456581 20.7678 0 19.6623 0 18.5098C0 17.3573 0.456581 16.2518 1.26979 15.4352L15.2608 1.26981C16.0774 0.456579 17.1829 0 18.3353 0C19.4877 0 20.5932 0.456579 21.4098 1.26981L35.5788 15.2612C36.392 16.0778 36.8486 17.1833 36.8486 18.3358C36.8486 19.4883 36.392 20.5938 35.5788 21.4104H35.5798ZM33.7978 20.4303C34.3136 19.8723 34.6002 19.1403 34.6002 18.3803C34.6002 17.6203 34.3136 16.8883 33.7978 16.3302L20.4298 3.05185C19.8701 2.52826 19.1279 2.24442 18.3617 2.26105C17.5955 2.27768 16.8662 2.59345 16.3298 3.14084L3.05279 16.4192C2.52873 16.9787 2.2446 17.7211 2.26123 18.4875C2.27787 19.2538 2.59395 19.9832 3.14178 20.5193L16.4198 33.7977C16.9777 34.3138 17.7098 34.6005 18.4698 34.6005C19.2298 34.6005 19.9619 34.3138 20.5198 33.7977L33.7978 20.4303Z"
        fill="white" />
    <path fill-rule="evenodd" clip-rule="evenodd"
        d="M31.3915 21.4992C27.5595 24.7993 23.7275 28.1834 19.8915 31.5695C19.2066 32.1222 18.3368 32.393 17.4592 32.3266C16.5817 32.2603 15.7625 31.8619 15.1685 31.2125C11.8685 27.3804 8.48445 23.5483 5.18745 19.6272C4.89771 19.3069 4.67456 18.9321 4.53098 18.5247C4.38739 18.1173 4.32625 17.6855 4.3511 17.2542C4.37594 16.823 4.48628 16.4011 4.6757 16.0129C4.86512 15.6247 5.12983 15.278 5.45445 14.9931C9.28645 11.607 13.1184 8.30886 17.0394 4.92276C17.7078 4.37079 18.5642 4.09956 19.4285 4.16615C20.2928 4.23273 21.0975 4.63193 21.6735 5.27977C25.0595 9.11188 28.3575 12.944 31.7425 16.7801C32.3158 17.4561 32.5999 18.3308 32.5333 19.2147C32.4667 20.0987 32.0547 20.9208 31.3864 21.5033L31.3915 21.4992ZM30.0545 20.6082C30.4963 20.2254 30.7714 19.6854 30.8212 19.1029C30.8711 18.5204 30.6918 17.9415 30.3215 17.4892C27.1135 13.8351 23.9944 10.2709 20.7864 6.61684C20.4047 6.17343 19.8644 5.89714 19.2814 5.84723C18.6984 5.79732 18.1191 5.97773 17.6675 6.3498C14.0135 9.5579 10.4495 12.677 6.79545 15.8851C6.36474 16.279 6.10505 16.8257 6.07179 17.4084C6.03854 17.9912 6.23435 18.5638 6.61745 19.0042C9.73645 22.6583 12.9444 26.2224 16.0634 29.8765C16.4572 30.3074 17.0039 30.5673 17.5867 30.6006C18.1695 30.6338 18.7422 30.4379 19.1825 30.0545C22.8365 26.9354 26.4005 23.8163 30.0545 20.6082V20.6082Z"
        fill="white" />
    <path fill-rule="evenodd" clip-rule="evenodd"
        d="M27.3357 21.5703L18.2937 27.4215C18.0439 27.5916 17.7628 27.7106 17.4667 27.7715C17.1707 27.8324 16.8655 27.834 16.5687 27.7762C16.272 27.7185 15.9897 27.6025 15.7381 27.435C15.4865 27.2675 15.2705 27.0519 15.1027 26.8004C13.1527 23.7863 11.1137 20.7723 9.16272 17.7582C8.99957 17.5021 8.88848 17.2164 8.83581 16.9174C8.78314 16.6185 8.78993 16.312 8.85577 16.0156C8.92162 15.7193 9.04524 15.4388 9.21957 15.1902C9.39389 14.9417 9.6155 14.7299 9.87172 14.5671C12.8857 12.617 15.8117 10.667 18.8247 8.6279C19.3567 8.29789 19.9961 8.1874 20.608 8.31967C21.2199 8.45194 21.7565 8.81663 22.1047 9.33691C24.0547 12.351 26.0047 15.3651 27.9557 18.2912C28.2999 18.8111 28.4276 19.4448 28.3116 20.0574C28.1956 20.6701 27.8451 21.2132 27.3347 21.5713L27.3357 21.5703ZM26.4487 20.7703C26.786 20.5441 27.0213 20.1947 27.1041 19.7971C27.1869 19.3995 27.1107 18.9853 26.8917 18.6432L21.3067 10.133C21.0803 9.79558 20.7308 9.56028 20.3331 9.47748C19.9353 9.39467 19.5209 9.47095 19.1787 9.68995L10.6687 15.2751C10.3311 15.5014 10.0957 15.8509 10.0129 16.2487C9.93006 16.6466 10.0065 17.061 10.2257 17.4032L15.8107 25.9134C16.0371 26.2508 16.3866 26.486 16.7844 26.5688C17.1821 26.6517 17.5965 26.5754 17.9387 26.3564L26.4487 20.7703Z"
        fill="white" />
    <path fill-rule="evenodd" clip-rule="evenodd"
        d="M23.0647 21.8602L16.6367 23.5973C16.2472 23.676 15.8424 23.607 15.501 23.4037C15.1596 23.2003 14.906 22.8773 14.7897 22.4973V22.4973L13.0537 16.1591C12.9944 15.9706 12.9739 15.772 12.9935 15.5753C13.0131 15.3787 13.0724 15.1881 13.1677 15.015C13.263 14.8418 13.3925 14.6899 13.5482 14.5682C13.7039 14.4466 13.8827 14.3577 14.0737 14.307L20.5017 12.483C20.8935 12.3928 21.3051 12.4579 21.6498 12.6647C21.9946 12.8715 22.2459 13.2039 22.3507 13.592L24.0867 19.9212C24.1507 20.1149 24.1751 20.3195 24.1585 20.5229C24.1419 20.7262 24.0846 20.9241 23.99 21.1049C23.8954 21.2857 23.7655 21.4456 23.6079 21.5752C23.4504 21.7048 23.2684 21.8014 23.0727 21.8593H23.0677L23.0647 21.8602ZM22.6647 21.0752C22.7746 21.0415 22.8764 20.9857 22.9641 20.9114C23.0517 20.837 23.1233 20.7456 23.1745 20.6427C23.2256 20.5398 23.2553 20.4275 23.2617 20.3128C23.2681 20.198 23.2511 20.0832 23.2117 19.9752V19.9752L21.5607 13.9751C21.5358 13.8667 21.4894 13.7645 21.4244 13.6743C21.3593 13.5842 21.2769 13.508 21.1819 13.4502C21.087 13.3924 20.9814 13.3543 20.8715 13.3379C20.7615 13.3216 20.6494 13.3273 20.5417 13.355L14.4717 15.0021C14.2603 15.0851 14.0872 15.2434 13.9856 15.4465C13.8841 15.6497 13.8613 15.8832 13.9217 16.1021V16.1021L15.5717 22.0922C15.6472 22.321 15.7981 22.5174 15.9997 22.6493C16.0829 22.7078 16.1789 22.7456 16.2796 22.7594C16.3804 22.7731 16.483 22.7625 16.5787 22.7283V22.7283L22.6647 21.0752Z"
        fill="white" />
    <path fill-rule="evenodd" clip-rule="evenodd"
        d="M49.8107 14.2565C49.816 13.9975 49.7632 13.7402 49.6557 13.5014C49.5597 13.2917 49.414 13.105 49.2297 12.9554C49.0423 12.8064 48.8241 12.695 48.5887 12.6278C48.3296 12.5533 48.0598 12.5165 47.7887 12.5186C47.5148 12.5167 47.2416 12.5445 46.9747 12.6017C46.7378 12.6516 46.5157 12.7501 46.3247 12.8901C46.1352 13.0338 45.9859 13.2183 45.8897 13.4277C45.7751 13.6909 45.721 13.9735 45.7307 14.2574C45.7124 14.4925 45.7516 14.7284 45.8455 14.9472C45.9395 15.166 46.0855 15.362 46.2727 15.5202C46.6897 15.8194 47.2075 15.9697 47.7327 15.9439C48.0385 15.9492 48.343 15.9049 48.6327 15.8133C48.873 15.7363 49.0941 15.6147 49.2827 15.4558C49.4547 15.3078 49.589 15.1257 49.6757 14.9229C49.7646 14.7116 49.8091 14.4863 49.8067 14.2593L49.8107 14.2565ZM47.7517 9.88007C48.0755 9.88097 48.3985 9.91228 48.7157 9.97344C49.0284 10.0301 49.327 10.1412 49.5957 10.301C49.8624 10.4629 50.0825 10.6834 50.2367 10.9432C50.4142 11.2622 50.4997 11.6189 50.4847 11.9782V14.249C50.5073 14.6065 50.4257 14.9631 50.2486 15.2807C50.0715 15.5984 49.8054 15.8653 49.4787 16.0531C49.2006 16.217 48.8929 16.3324 48.5707 16.3938C48.2831 16.4519 47.9899 16.4832 47.6957 16.4871C47.2896 16.4957 46.8853 16.435 46.5027 16.308C46.1941 16.2033 45.9134 16.0378 45.6797 15.8226C45.4665 15.6218 45.3021 15.3805 45.1977 15.1151C45.0906 14.8406 45.0367 14.5505 45.0387 14.2584C45.0248 13.8801 45.1031 13.5039 45.2677 13.158C45.4043 12.8834 45.6085 12.6429 45.8637 12.4561C46.1096 12.2818 46.3915 12.1569 46.6917 12.0893C46.995 12.0197 47.3063 11.9846 47.6187 11.9847C48.0658 11.9726 48.5101 12.0546 48.9187 12.2246C49.2507 12.3685 49.5471 12.5755 49.7887 12.8322V12.1947C49.8018 11.9557 49.762 11.7168 49.6719 11.4928C49.5817 11.2688 49.4431 11.0646 49.2647 10.8928C49.0632 10.7246 48.8278 10.5956 48.5724 10.5132C48.3169 10.4308 48.0464 10.3968 47.7767 10.413C47.4502 10.4054 47.1239 10.4317 46.8037 10.4914C46.6096 10.5266 46.4249 10.5977 46.2607 10.7005C46.146 10.7761 46.0568 10.8807 46.0037 11.002C45.9565 11.1166 45.9203 11.235 45.8957 11.3557H45.2637C45.2824 11.2075 45.3158 11.0613 45.3637 10.9189C45.428 10.7333 45.5423 10.5661 45.6957 10.4336C45.9095 10.2549 46.1618 10.1209 46.4357 10.0406C46.8628 9.91938 47.3085 9.86484 47.7547 9.87916L47.7517 9.88007ZM56.6437 14.1734V11.2903C56.645 11.1634 56.6373 11.0365 56.6207 10.9105C56.6092 10.8127 56.5706 10.7194 56.5087 10.6398C56.4387 10.5604 56.3434 10.5038 56.2367 10.4783C56.0766 10.439 55.9112 10.4214 55.7457 10.4261C55.6054 10.426 55.4656 10.4423 55.3297 10.4746C55.2029 10.5034 55.0836 10.5554 54.9787 10.6277C54.8782 10.6981 54.7964 10.7891 54.7397 10.8937C54.678 11.0119 54.6475 11.1421 54.6507 11.2735V12.7324H53.9587V11.2735C53.9702 11.1528 53.9508 11.0312 53.9019 10.9189C53.853 10.8066 53.7761 10.7067 53.6777 10.6277C53.4371 10.4796 53.1512 10.4091 52.8637 10.427H51.8907V9.89408H52.7237C52.9017 9.89301 53.0797 9.90175 53.2567 9.92023C53.4039 9.9355 53.5477 9.97236 53.6827 10.0294C53.8137 10.0873 53.93 10.1707 54.0237 10.2739C54.1391 10.4047 54.2337 10.5502 54.3047 10.7061C54.393 10.5491 54.5033 10.4038 54.6327 10.2739C54.7357 10.1726 54.8577 10.0898 54.9927 10.0294C55.1216 9.97398 55.2589 9.93716 55.3997 9.92023C55.5549 9.90213 55.7112 9.89339 55.8677 9.89408C56.1428 9.88187 56.4171 9.93114 56.6677 10.0378C56.8496 10.1238 57.0008 10.2574 57.1027 10.4223C57.2034 10.5955 57.2654 10.7861 57.2847 10.9824C57.3101 11.2043 57.3225 11.4274 57.3217 11.6506V14.1706C57.3386 14.5669 57.2383 14.9599 57.0317 15.3065C56.8525 15.5892 56.6078 15.8309 56.3157 16.014C56.0388 16.1857 55.7313 16.3099 55.4077 16.3808C55.1246 16.4464 54.8344 16.4818 54.5427 16.4862C54.1354 16.4952 53.7301 16.4299 53.3497 16.2939C53.0363 16.179 52.7547 15.9997 52.5257 15.7694C52.3078 15.5437 52.1435 15.2774 52.0437 14.9882C51.9357 14.6766 51.882 14.3507 51.8847 14.0232H52.5767C52.5421 14.2784 52.5695 14.5377 52.6568 14.7818C52.7442 15.0258 52.8894 15.2484 53.0814 15.433C53.2735 15.6175 53.5077 15.7594 53.7665 15.848C54.0254 15.9366 54.3023 15.9697 54.5767 15.9449C54.8837 15.9505 55.1891 15.9018 55.4767 15.8011C55.718 15.7161 55.9379 15.5855 56.1227 15.4175C56.2928 15.2593 56.4236 15.0682 56.5057 14.8575C56.5908 14.6392 56.6338 14.4086 56.6327 14.1762L56.6437 14.1734ZM59.5927 14.2612C59.5903 14.4882 59.6348 14.7135 59.7237 14.9248C59.8104 15.1275 59.9447 15.3096 60.1167 15.4577C60.3053 15.6165 60.5264 15.7381 60.7667 15.8151C61.0564 15.9068 61.3608 15.951 61.6667 15.9458C62.192 15.972 62.7099 15.8217 63.1267 15.5221C63.314 15.3639 63.4603 15.168 63.5543 14.9492C63.6484 14.7304 63.6879 14.4944 63.6697 14.2593C63.6794 13.9754 63.6252 13.6927 63.5107 13.4296C63.4147 13.22 63.2654 13.0354 63.0757 12.8919C62.8832 12.7513 62.6594 12.6528 62.4207 12.6036C62.1553 12.5469 61.8839 12.519 61.6117 12.5205C61.3406 12.5183 61.0708 12.5552 60.8117 12.6297C60.5763 12.6968 60.3581 12.8083 60.1707 12.9573C59.9865 13.107 59.8408 13.2937 59.7447 13.5033C59.6375 13.7422 59.585 13.9994 59.5907 14.2584L59.5927 14.2612ZM63.5797 9.93704V10.5138H61.0637C60.7643 10.5138 60.5197 10.5182 60.3297 10.5269C60.1757 10.5262 60.0235 10.5581 59.8847 10.6202C59.8313 10.6488 59.7847 10.6871 59.7477 10.733C59.7108 10.7789 59.6842 10.8313 59.6697 10.8871C59.6263 11.0617 59.6075 11.2409 59.6137 11.4201L59.6327 12.835C59.8962 12.5846 60.2071 12.3817 60.5497 12.2368C60.9361 12.0683 61.3582 11.9831 61.7847 11.9875C62.0954 11.9879 62.4049 12.023 62.7067 12.0921C63.0086 12.1591 63.2923 12.284 63.5397 12.4589C63.7959 12.6445 64.0015 12.8841 64.1397 13.158C64.3043 13.5039 64.3826 13.8801 64.3687 14.2584C64.3706 14.5505 64.3168 14.8406 64.2097 15.1151C64.1053 15.3805 63.9409 15.6218 63.7277 15.8226C63.4926 16.0384 63.2101 16.204 62.8997 16.308C62.5182 16.4344 62.1154 16.4951 61.7107 16.4871C61.4171 16.4845 61.1244 16.4583 60.8357 16.4087C60.5156 16.3564 60.2081 16.2511 59.9277 16.0979C59.6365 15.9367 59.391 15.7127 59.2117 15.4446C59.0028 15.1087 58.9021 14.7237 58.9217 14.3358V11.5405C58.9055 11.2164 58.9596 10.8926 59.0807 10.5885C59.1673 10.3876 59.3241 10.2198 59.5257 10.1125C59.739 10.011 59.9742 9.95574 60.2137 9.95099C60.4803 9.93917 60.7737 9.93328 61.0937 9.93328L63.5797 9.93704ZM70.5797 12.8891C70.5797 13.0403 70.5797 13.2192 70.5797 13.4258C70.5797 13.6324 70.572 13.8769 70.5567 14.1594C70.544 14.4419 70.5253 14.7679 70.5007 15.1375C70.476 15.5071 70.4427 15.9277 70.4007 16.3994H69.7077C69.7517 15.9159 69.785 15.4894 69.8077 15.1198C69.8303 14.7502 69.8477 14.427 69.8597 14.1501C69.869 13.8732 69.8753 13.633 69.8787 13.4296C69.882 13.2261 69.882 13.0484 69.8787 12.8966C69.8864 12.4993 69.8472 12.1024 69.7617 11.7131C69.7037 11.4395 69.5874 11.1796 69.4197 10.9488C69.2796 10.7633 69.0841 10.6205 68.8577 10.5381C68.6124 10.4531 68.3523 10.4116 68.0907 10.4158C67.8149 10.4099 67.5404 10.4526 67.2817 10.5418C67.0505 10.6291 66.8531 10.7797 66.7157 10.9739C66.548 11.2212 66.4351 11.4973 66.3837 11.7859C66.3051 12.204 66.2692 12.6281 66.2767 13.0525C66.2767 13.2043 66.2767 13.382 66.2767 13.5854C66.2767 13.7889 66.2843 14.0263 66.2997 14.2976C66.3123 14.5682 66.331 14.8769 66.3557 15.2234C66.3803 15.57 66.4137 15.9614 66.4557 16.3976H65.7637C65.689 15.6758 65.639 15.0775 65.6137 14.6027C65.5883 14.128 65.576 13.7335 65.5767 13.4193V12.8863C65.5599 12.3674 65.6342 11.8494 65.7967 11.3529C65.911 11.011 66.1062 10.6975 66.3677 10.4354C66.5878 10.225 66.8639 10.0729 67.1677 9.99486C67.7652 9.84337 68.3952 9.84337 68.9927 9.99486C69.2965 10.0729 69.5725 10.225 69.7927 10.4354C70.0537 10.697 70.2473 11.0108 70.3587 11.3529C70.5177 11.85 70.5903 12.3677 70.5737 12.8863L70.5797 12.8891ZM75.2797 9.90992C75.6179 9.90832 75.9559 9.93016 76.2907 9.97526C76.5708 10.0106 76.8446 10.0809 77.1047 10.1843C77.3144 10.2652 77.4993 10.3935 77.6427 10.5577C77.7725 10.7188 77.8401 10.9161 77.8347 11.1177C77.8476 11.3691 77.7724 11.6176 77.6205 11.8256C77.4685 12.0336 77.2482 12.1897 76.9927 12.2704C77.2191 12.3488 77.4294 12.4627 77.6147 12.6073C77.7796 12.7369 77.9231 12.8885 78.0407 13.0571C78.1518 13.2174 78.2354 13.3928 78.2887 13.577C78.3412 13.7549 78.3681 13.9385 78.3687 14.123C78.3937 14.4534 78.3355 14.7846 78.1989 15.0903C78.0622 15.3959 77.8509 15.6675 77.5817 15.8833C76.9052 16.3187 76.0904 16.5267 75.2707 16.4732C74.7586 16.4822 74.2516 16.3773 73.7917 16.167C73.3766 15.9744 73.0062 15.7073 72.7017 15.3811C72.4071 15.0637 72.1785 14.6979 72.0277 14.3022C71.8787 13.923 71.8012 13.5226 71.7987 13.1188C71.7987 12.9029 71.8033 12.6714 71.8127 12.4243C71.8239 12.1595 71.8519 11.8956 71.8967 11.6338C71.9481 11.3366 72.0233 11.0433 72.1217 10.7565C72.2355 10.426 72.3811 10.1058 72.5567 9.7998L73.1647 10.1059C73.0029 10.432 72.864 10.7674 72.7487 11.1102C72.6603 11.3752 72.5898 11.6452 72.5377 11.9185C72.4967 12.1344 72.4717 12.3527 72.4627 12.5718C72.4567 12.7641 72.4527 12.9386 72.4527 13.0963C72.4494 13.4745 72.5191 13.8501 72.6587 14.2052C72.7877 14.5363 72.9828 14.8416 73.2337 15.1049C73.4799 15.361 73.7793 15.5677 74.1137 15.7125C74.4674 15.8637 74.8526 15.9399 75.2417 15.9356C75.5781 15.9385 75.9137 15.9047 76.2417 15.8347C76.5202 15.7782 76.7831 15.6682 77.0137 15.5118C77.2282 15.3624 77.3999 15.1659 77.5137 14.9397C77.6391 14.6755 77.6999 14.3885 77.6917 14.0997C77.6915 13.8947 77.6437 13.6922 77.5517 13.5061C77.4597 13.3157 77.3293 13.1436 77.1677 12.9993C77.0008 12.8507 76.8058 12.7324 76.5927 12.6502C76.3692 12.5624 76.1291 12.5177 75.8867 12.5186H74.7257V12.0202H75.8867C76.0476 12.0207 76.2085 12.0135 76.3687 11.9988C76.5084 11.9873 76.6443 11.9502 76.7687 11.8896C76.885 11.8298 76.9807 11.7405 77.0447 11.6319C77.1202 11.4836 77.1546 11.3199 77.1447 11.1559C77.146 11.0496 77.1151 10.9452 77.0557 10.8545C76.9819 10.7529 76.8775 10.674 76.7557 10.6277C76.5717 10.5561 76.3783 10.5074 76.1807 10.483C75.8845 10.4448 75.5857 10.4274 75.2867 10.4308V9.90622L75.2797 9.90992ZM84.5797 12.8891C84.5797 13.0403 84.5797 13.2192 84.5797 13.4258C84.5797 13.6324 84.5717 13.8769 84.5557 14.1594C84.5437 14.4419 84.525 14.7679 84.4997 15.1375C84.4743 15.5071 84.441 15.9277 84.3997 16.3994H83.7077C83.7517 15.9159 83.785 15.4894 83.8077 15.1198C83.8303 14.7502 83.8477 14.427 83.8597 14.1501C83.869 13.8732 83.8753 13.633 83.8787 13.4296C83.882 13.2261 83.882 13.0484 83.8787 12.8966C83.8864 12.4993 83.8471 12.1024 83.7617 11.7131C83.7037 11.4395 83.5874 11.1796 83.4197 10.9488C83.2796 10.7633 83.0841 10.6205 82.8577 10.5381C82.6124 10.4531 82.3523 10.4116 82.0907 10.4158C81.8149 10.4098 81.5404 10.4525 81.2817 10.5418C81.0505 10.629 80.8531 10.7797 80.7157 10.9739C80.5478 11.2211 80.4349 11.4972 80.3837 11.7859C80.3051 12.204 80.2693 12.6281 80.2767 13.0525C80.2767 13.2043 80.2767 13.382 80.2767 13.5854C80.2767 13.7889 80.2843 14.0263 80.2997 14.2976C80.3117 14.5682 80.3303 14.8769 80.3557 15.2234C80.381 15.57 80.4143 15.9614 80.4557 16.3976H79.7637C79.689 15.6758 79.639 15.0775 79.6137 14.6027C79.5883 14.128 79.576 13.7335 79.5767 13.4193V12.8863C79.5599 12.3674 79.6342 11.8494 79.7967 11.3529C79.911 11.011 80.1062 10.6975 80.3677 10.4354C80.5877 10.225 80.8639 10.0729 81.1677 9.99486C81.4666 9.9192 81.775 9.88096 82.0847 9.88104C82.3914 9.88125 82.6968 9.91949 82.9927 9.99486C83.2965 10.0729 83.5726 10.225 83.7927 10.4354C84.0537 10.697 84.2473 11.0108 84.3587 11.3529C84.5179 11.85 84.5905 12.3677 84.5737 12.8863L84.5797 12.8891ZM88.3987 9.88383C88.3929 9.95802 88.4084 10.0323 88.4435 10.099C88.4787 10.1658 88.5322 10.2226 88.5987 10.2637C88.75 10.351 88.916 10.4142 89.0897 10.4504C89.2897 10.4939 89.502 10.5334 89.7267 10.5689C89.9477 10.6015 90.1624 10.6643 90.3637 10.7555C90.587 10.8528 90.7728 11.0118 90.8959 11.211C91.0189 11.4102 91.0733 11.6399 91.0517 11.869C91.0506 11.959 91.0381 12.0486 91.0147 12.1359C90.9592 12.3424 90.8424 12.5301 90.6777 12.6773C90.5868 12.7581 90.4824 12.8246 90.3687 12.8742C90.6313 12.9913 90.8527 13.1759 91.0069 13.4064C91.161 13.6369 91.2414 13.9036 91.2387 14.1753C91.2502 14.5437 91.1719 14.9098 91.0097 15.2458C90.8699 15.5235 90.6648 15.7682 90.4097 15.9617C90.1576 16.1476 89.8677 16.2842 89.5577 16.363C89.2362 16.4476 88.9037 16.4903 88.5697 16.49C88.1591 16.4978 87.7504 16.4371 87.3627 16.3108C87.0416 16.204 86.747 16.0376 86.4967 15.8217C86.2646 15.6175 86.0854 15.3666 85.9727 15.0881C85.8556 14.7963 85.7969 14.4869 85.7997 14.1753H86.4917C86.4865 14.4315 86.539 14.6859 86.6457 14.922C86.7451 15.136 86.8936 15.3272 87.0807 15.4819C87.2745 15.6394 87.5008 15.7582 87.7457 15.831C88.0179 15.9118 88.3021 15.9514 88.5877 15.9486C88.8892 15.9549 89.1888 15.9028 89.4677 15.7955C89.7017 15.7039 89.9123 15.5672 90.0857 15.3942C90.2466 15.2301 90.3692 15.0365 90.4457 14.8258C90.5234 14.6156 90.563 14.3948 90.5627 14.1725C90.5551 13.9387 90.4756 13.7119 90.3337 13.5191C90.2554 13.4145 90.1587 13.323 90.0477 13.2485C89.9331 13.1724 89.7953 13.1329 89.6547 13.1356L88.1857 13.1262V12.5755H89.6547C89.7807 12.5804 89.906 12.5564 90.0197 12.5055C90.1094 12.4626 90.1853 12.3982 90.2397 12.3189C90.2937 12.2373 90.33 12.1466 90.3467 12.052C90.3657 11.9512 90.3751 11.849 90.3747 11.7467C90.3796 11.6677 90.3634 11.5888 90.3274 11.517C90.2915 11.4453 90.2369 11.3831 90.1687 11.3361C90.0106 11.2342 89.8346 11.159 89.6487 11.114C89.4269 11.0559 89.2019 11.0091 88.9747 10.9739C88.744 10.9384 88.518 10.8798 88.3007 10.7994C88.103 10.7283 87.9252 10.6163 87.7807 10.4718C87.6351 10.3082 87.5615 10.099 87.5747 9.88662L88.3987 9.88383ZM94.9687 9.88383C94.9594 10.1385 95.0288 10.3902 95.1687 10.609C95.3031 10.8048 95.4671 10.9815 95.6557 11.1336C95.849 11.2904 96.0597 11.4459 96.2877 11.6002C96.5211 11.7596 96.7333 11.9444 96.9197 12.1509C97.1259 12.3838 97.2904 12.6463 97.4067 12.9283C97.55 13.2962 97.6179 13.686 97.6067 14.0773C97.6092 14.3971 97.5669 14.7159 97.4807 15.0255C97.4042 15.3052 97.2637 15.566 97.0687 15.79C96.8627 16.0156 96.6007 16.1908 96.3057 16.3005C95.533 16.5555 94.6891 16.5509 93.9197 16.2874C93.5995 16.165 93.3153 15.9731 93.0907 15.7274C92.871 15.4813 92.7086 15.1952 92.6137 14.8874C92.5073 14.5425 92.4551 14.1851 92.4587 13.8262V13.1887H93.1517V13.8178C93.1481 14.1089 93.1906 14.3988 93.2777 14.6783C93.3539 14.9226 93.4795 15.151 93.6477 15.3513C93.8116 15.5417 94.0217 15.693 94.2607 15.7928C94.534 15.9024 94.8293 15.9559 95.1267 15.9495C95.4124 15.957 95.697 15.9127 95.9647 15.8189C96.1799 15.7406 96.37 15.612 96.5167 15.4455C96.6623 15.269 96.7647 15.0648 96.8167 14.8473C96.8827 14.5824 96.9143 14.311 96.9107 14.039C96.9225 13.7032 96.8542 13.3691 96.7107 13.0609C96.5841 12.8092 96.4153 12.5779 96.2107 12.3758C96.011 12.1802 95.7917 12.003 95.5557 11.8466C95.3247 11.6941 95.1058 11.5263 94.9007 11.3445C94.7015 11.1672 94.5328 10.9623 94.4007 10.7369C94.2582 10.4748 94.1894 10.1832 94.2007 9.88941L94.9687 9.88383ZM98.9287 11.6833C98.9213 11.6457 98.918 11.6076 98.9187 11.5694V11.4565C98.9057 11.241 98.9448 11.0255 99.0331 10.8259C99.1213 10.6264 99.2565 10.448 99.4287 10.3038C99.8508 10.0054 100.374 9.85955 100.903 9.89317C101.139 9.88793 101.375 9.91593 101.603 9.97623C101.773 10.0231 101.932 10.1001 102.071 10.203C102.192 10.2953 102.294 10.408 102.371 10.5353C102.448 10.663 102.515 10.7959 102.571 10.9329C102.602 10.7947 102.652 10.661 102.721 10.5353C102.79 10.4096 102.883 10.2969 102.997 10.203C103.124 10.1009 103.272 10.0238 103.432 9.97623C103.634 9.91695 103.846 9.88891 104.059 9.89317C104.258 9.88957 104.457 9.91603 104.648 9.97156C104.803 10.0175 104.949 10.0882 105.079 10.1806C105.193 10.2635 105.292 10.3623 105.374 10.4737C105.447 10.573 105.508 10.6798 105.556 10.7919C105.603 10.6804 105.663 10.5738 105.734 10.4737C105.814 10.3598 105.915 10.2605 106.034 10.1806C106.179 10.0859 106.34 10.0152 106.511 9.97156C106.741 9.91438 106.979 9.888 107.218 9.89317C107.754 9.85606 108.287 10.0019 108.718 10.3038C108.884 10.4388 109.016 10.607 109.103 10.7958C109.19 10.9846 109.231 11.1893 109.223 11.3949L109.129 14.1296H108.437L108.512 11.6096C108.524 11.4495 108.502 11.2887 108.448 11.1365C108.393 10.9843 108.307 10.8437 108.194 10.7229C107.879 10.4906 107.479 10.3825 107.08 10.4214C106.884 10.4157 106.69 10.4531 106.514 10.5306C106.365 10.6001 106.238 10.7039 106.144 10.8321C106.044 10.9705 105.976 11.1264 105.944 11.2903C105.905 11.4848 105.886 11.6824 105.888 11.8802L105.878 13.2513H105.186L105.196 11.897C105.197 11.6952 105.181 11.4936 105.149 11.2941C105.124 11.1288 105.064 10.9699 104.971 10.8274C104.884 10.6998 104.761 10.5971 104.616 10.5306C104.44 10.4556 104.247 10.4198 104.054 10.4261C103.865 10.4202 103.677 10.456 103.506 10.5306C103.362 10.5981 103.241 10.7006 103.155 10.8274C103.063 10.9677 103.001 11.1233 102.973 11.2857C102.937 11.4805 102.919 11.6779 102.921 11.8755V13.2466H102.229V11.8755C102.247 11.5047 102.148 11.1371 101.943 10.819C101.844 10.6843 101.708 10.5762 101.55 10.5056C101.392 10.435 101.217 10.4044 101.043 10.4167C100.65 10.3857 100.257 10.4798 99.9287 10.6837C99.81 10.7817 99.717 10.9039 99.657 11.0408C99.597 11.1777 99.5716 11.3257 99.5827 11.4733V11.5787C99.5819 11.6101 99.585 11.6414 99.5917 11.6721L99.8447 14.922C99.8439 15.0254 99.8665 15.1278 99.9112 15.2225C99.9558 15.3171 100.021 15.4019 100.104 15.4712C100.186 15.5405 100.283 15.5928 100.389 15.6245C100.494 15.6563 100.606 15.6669 100.716 15.6555L108.016 15.8301V16.3808L100.716 16.2146C100.511 16.2306 100.305 16.2076 100.111 16.1467C99.9159 16.0859 99.7366 15.9887 99.5837 15.8609C99.3299 15.6036 99.1809 15.2713 99.1627 14.922L98.9287 11.6721V11.6833ZM115.205 14.1725V11.2894C115.206 11.1625 115.198 11.0356 115.182 10.9096C115.17 10.8118 115.132 10.7184 115.07 10.6389C115 10.5595 114.904 10.5029 114.798 10.4774C114.638 10.4381 114.472 10.4204 114.307 10.4251C114.166 10.425 114.027 10.4413 113.891 10.4737C113.764 10.5024 113.645 10.5545 113.54 10.6267C113.439 10.6971 113.357 10.7882 113.301 10.8928C113.239 11.011 113.209 11.1412 113.212 11.2726V12.7314H112.52V11.2726C112.531 11.1519 112.512 11.0303 112.463 10.9179C112.414 10.8056 112.337 10.7058 112.239 10.6267C111.998 10.4787 111.712 10.4083 111.425 10.4261H110.452V9.89317H111.285C111.463 9.8921 111.641 9.90078 111.818 9.91926C111.965 9.93453 112.109 9.97139 112.244 10.0285C112.375 10.0864 112.491 10.1698 112.585 10.273C112.7 10.4039 112.794 10.5494 112.866 10.7052C112.954 10.5482 113.064 10.4029 113.194 10.273C113.297 10.1717 113.419 10.0888 113.554 10.0285C113.683 9.97302 113.82 9.93619 113.961 9.91926C114.116 9.90117 114.272 9.89248 114.429 9.89317C114.704 9.88096 114.978 9.93023 115.229 10.0369C115.411 10.1229 115.562 10.2565 115.664 10.4214C115.764 10.5946 115.826 10.7851 115.846 10.9814C115.871 11.2034 115.883 11.4265 115.883 11.6497V14.1697C115.9 14.566 115.799 14.9589 115.593 15.3055C115.413 15.5882 115.169 15.8299 114.877 16.013C114.6 16.1847 114.292 16.309 113.969 16.3798C113.686 16.4455 113.395 16.4809 113.104 16.4853C112.696 16.4944 112.291 16.429 111.911 16.293C111.597 16.1781 111.316 15.9988 111.087 15.7685C110.869 15.5429 110.704 15.2766 110.605 14.9873C110.497 14.6756 110.443 14.3498 110.446 14.0222H111.138C111.103 14.2775 111.13 14.5369 111.217 14.781C111.305 15.0252 111.45 15.2478 111.642 15.4324C111.834 15.6171 112.068 15.7589 112.327 15.8474C112.586 15.936 112.863 15.969 113.138 15.9439C113.445 15.9496 113.75 15.9009 114.038 15.8002C114.279 15.7152 114.499 15.5846 114.684 15.4166C114.854 15.2585 114.985 15.0673 115.068 14.8566C115.152 14.6382 115.195 14.4075 115.194 14.1753L115.205 14.1725ZM121.439 12.8014C121.512 12.6696 121.612 12.5523 121.734 12.4561C121.885 12.3298 122.053 12.2225 122.234 12.1369C122.437 12.0402 122.65 11.9626 122.87 11.9054C123.101 11.8437 123.34 11.8123 123.581 11.8121C123.885 11.8069 124.189 11.8453 124.481 11.926C124.711 11.9899 124.923 12.1001 125.103 12.2489C125.263 12.3859 125.387 12.5563 125.464 12.7463C125.544 12.9504 125.584 13.1665 125.581 13.3838L125.487 16.3976H124.794L124.888 13.6022C124.902 13.4316 124.879 13.2601 124.82 13.0979C124.762 12.9358 124.669 12.7863 124.547 12.6586C124.235 12.4227 123.837 12.3098 123.438 12.3441C123.213 12.3283 122.987 12.3554 122.774 12.4237C122.561 12.4921 122.365 12.6003 122.198 12.7417C122.056 12.8836 121.946 13.0506 121.874 13.2329C121.803 13.4152 121.771 13.609 121.782 13.8029V14.9126H121.089V13.8029C121.099 13.609 121.067 13.4152 120.996 13.2329C120.924 13.0506 120.815 12.8836 120.673 12.7417C120.506 12.6003 120.31 12.4921 120.097 12.4237C119.883 12.3554 119.657 12.3283 119.433 12.3441C119.033 12.3098 118.635 12.4227 118.324 12.6586C118.202 12.7863 118.109 12.9358 118.05 13.0979C117.991 13.2601 117.968 13.4316 117.983 13.6022L118.077 16.3976H117.385L117.291 13.2093C117.289 12.7318 117.377 12.2578 117.553 11.8093C117.696 11.4555 117.917 11.134 118.203 10.8657C118.475 10.6175 118.798 10.423 119.153 10.2935C119.527 10.1565 119.916 10.0583 120.313 10.0005C120.737 9.93858 121.165 9.90365 121.595 9.89596C122.037 9.88725 122.474 9.88286 122.905 9.88286V10.4158C122.742 10.4158 122.569 10.4158 122.385 10.4158C122.201 10.4158 122.006 10.4158 121.8 10.4158C121.425 10.4158 121.035 10.4348 120.63 10.4727C120.237 10.5078 119.851 10.5917 119.483 10.722C119.128 10.8477 118.805 11.0428 118.538 11.2941C118.25 11.5755 118.057 11.929 117.981 12.3114C118.137 12.1482 118.333 12.0224 118.552 11.9446C118.788 11.8611 119.038 11.8196 119.291 11.8223C119.531 11.8226 119.77 11.854 120.002 11.9157C120.222 11.973 120.435 12.0505 120.639 12.1472C120.819 12.2328 120.988 12.3401 121.139 12.4663C121.262 12.5623 121.364 12.6796 121.439 12.8117V12.8014ZM131.809 12.8891C131.809 13.0403 131.809 13.2192 131.809 13.4258C131.809 13.6324 131.801 13.8769 131.786 14.1594C131.773 14.4419 131.754 14.7679 131.73 15.1375C131.705 15.5071 131.672 15.9277 131.63 16.3994H130.937C130.981 15.9159 131.014 15.4894 131.037 15.1198C131.059 14.7502 131.077 14.427 131.089 14.1501C131.098 13.8732 131.104 13.633 131.108 13.4296C131.111 13.2261 131.111 13.0484 131.108 12.8966C131.115 12.4993 131.076 12.1024 130.991 11.7131C130.933 11.4396 130.817 11.1797 130.65 10.9488C130.509 10.7635 130.314 10.6208 130.088 10.5381C129.842 10.4532 129.582 10.4118 129.321 10.4158C129.045 10.4098 128.77 10.4525 128.511 10.5418C128.279 10.6289 128.082 10.7797 127.945 10.9739C127.777 11.2211 127.664 11.4972 127.613 11.7859C127.534 12.2039 127.497 12.628 127.505 13.0525C127.505 13.2043 127.505 13.382 127.505 13.5854C127.505 13.7889 127.512 14.0263 127.528 14.2976C127.54 14.5682 127.559 14.8769 127.584 15.2234C127.608 15.57 127.642 15.9614 127.684 16.3976H126.992C126.917 15.6758 126.867 15.0775 126.842 14.6027C126.816 14.128 126.804 13.7335 126.805 13.4193V12.8863C126.788 12.3674 126.862 11.8494 127.025 11.3529C127.139 11.0109 127.334 10.6974 127.596 10.4354C127.816 10.225 128.092 10.0729 128.396 9.99486C128.993 9.84342 129.623 9.84342 130.221 9.99486C130.524 10.0729 130.801 10.225 131.021 10.4354C131.282 10.6972 131.475 11.0109 131.587 11.3529C131.746 11.85 131.818 12.3677 131.802 12.8863L131.809 12.8891ZM136.76 14.1734C136.758 14.4057 136.801 14.6363 136.886 14.8548C136.968 15.0654 137.099 15.2565 137.27 15.4147C137.453 15.582 137.671 15.7125 137.911 15.7983C138.201 15.9001 138.509 15.9488 138.819 15.9421C139.1 15.9456 139.379 15.9059 139.647 15.8245C139.879 15.7529 140.094 15.6383 140.279 15.4875C140.453 15.3404 140.59 15.1582 140.679 14.9546C140.775 14.7326 140.822 14.4949 140.819 14.2555C140.828 13.9743 140.779 13.6942 140.674 13.4305C140.594 13.2381 140.478 13.0604 140.332 12.9059C140.217 12.7881 140.079 12.6929 139.925 12.626C139.82 12.5787 139.708 12.5471 139.593 12.5326C139.381 12.5259 139.18 12.4409 139.036 12.2965C138.903 12.1605 138.832 11.9826 138.836 11.799V11.2838H139.491V11.6684C139.485 11.7555 139.512 11.8418 139.566 11.9129C139.65 11.9873 139.759 12.0336 139.875 12.0445C140.011 12.0859 140.145 12.1355 140.275 12.1929C140.478 12.2834 140.663 12.4059 140.822 12.555C141.025 12.747 141.188 12.9723 141.304 13.2195C141.452 13.5495 141.522 13.9054 141.51 14.263C141.509 14.5434 141.456 14.8216 141.351 15.0843C141.246 15.3508 141.081 15.5935 140.869 15.7965C140.633 16.0159 140.351 16.187 140.041 16.2986C139.661 16.4339 139.258 16.4992 138.852 16.4909C138.557 16.4869 138.264 16.4557 137.977 16.3976C137.654 16.3361 137.347 16.2207 137.069 16.0569C136.742 15.8691 136.476 15.6021 136.299 15.2844C136.122 14.9668 136.04 14.6102 136.063 14.2527V9.88007H136.756V14.1734H136.76ZM147.299 12.0071C147.319 11.786 147.289 11.5634 147.21 11.3541C147.131 11.1449 147.004 10.9538 146.84 10.7938C146.452 10.5092 145.965 10.3704 145.474 10.4046C145.167 10.3925 144.862 10.4369 144.574 10.5353C144.384 10.6047 144.217 10.7173 144.087 10.8629C143.982 10.9856 143.908 11.1288 143.872 11.2819C143.838 11.4303 143.808 11.5619 143.783 11.6879H143.146C143.152 11.6064 143.164 11.5044 143.183 11.3818C143.229 11.1 143.342 10.8314 143.515 10.596C143.622 10.4526 143.758 10.3297 143.915 10.2338C144.107 10.1156 144.319 10.027 144.542 9.97156C144.838 9.89898 145.143 9.86503 145.45 9.87073C145.752 9.87195 146.054 9.90327 146.35 9.9641C146.642 10.0213 146.921 10.131 147.169 10.287C147.421 10.4502 147.625 10.6692 147.764 10.9245C147.929 11.2471 148.007 11.6023 147.993 11.9596V14.2481C148.01 14.6372 147.916 15.0236 147.722 15.3681C147.556 15.6407 147.326 15.8738 147.048 16.0494C146.789 16.2115 146.5 16.3271 146.196 16.3901C145.933 16.4475 145.665 16.4787 145.396 16.4834C145.01 16.4929 144.626 16.4228 144.273 16.2781C143.975 16.1516 143.713 15.9633 143.506 15.7274C143.304 15.4939 143.154 15.2252 143.066 14.9369C142.971 14.6336 142.924 14.3193 142.926 14.0036H143.618C143.582 14.5204 143.754 15.031 144.1 15.4362C144.268 15.6069 144.476 15.7407 144.706 15.8282C144.937 15.9156 145.185 15.9545 145.434 15.9421C145.719 15.9482 146.003 15.8993 146.267 15.7983C146.49 15.7122 146.689 15.5812 146.852 15.4147C147.006 15.2523 147.123 15.0616 147.194 14.8548C147.269 14.6345 147.307 14.4046 147.306 14.1734L147.299 12.0071Z"
        fill="white" />
    <path fill-rule="evenodd" clip-rule="evenodd"
        d="M153.358 12.7965C153.432 12.6648 153.532 12.5475 153.653 12.4512C153.804 12.325 153.972 12.2176 154.153 12.1319C154.357 12.0351 154.57 11.9575 154.79 11.9005C155.021 11.8387 155.261 11.8073 155.501 11.8071C155.806 11.8018 156.109 11.8402 156.401 11.921C156.631 11.9849 156.844 12.0951 157.023 12.2439C157.183 12.3811 157.307 12.5515 157.383 12.7414C157.463 12.9455 157.503 13.1615 157.5 13.3788L157.407 16.3926H156.714L156.808 13.5973C156.822 13.4266 156.799 13.2552 156.741 13.093C156.682 12.9309 156.589 12.7815 156.467 12.6537C156.155 12.4179 155.758 12.3051 155.358 12.3392C155.133 12.3234 154.907 12.3505 154.694 12.4189C154.481 12.4872 154.285 12.5953 154.118 12.7367C153.976 12.8787 153.867 13.0458 153.795 13.2281C153.724 13.4103 153.692 13.6041 153.702 13.7979V14.9076H153.01V13.8016C153.02 13.6078 152.989 13.414 152.917 13.2317C152.846 13.0494 152.736 12.8824 152.594 12.7405C152.427 12.5991 152.231 12.4909 152.018 12.4226C151.805 12.3542 151.579 12.3271 151.354 12.3429C150.955 12.3086 150.557 12.4215 150.245 12.6574C150.123 12.7851 150.03 12.9345 149.971 13.0966C149.912 13.2588 149.889 13.4303 149.903 13.601L149.997 16.3963H149.305L149.211 13.2081C149.209 12.7306 149.298 12.2566 149.473 11.8081C149.609 11.4636 149.821 11.1501 150.097 10.8887C150.373 10.6273 150.706 10.424 151.073 10.2924C151.447 10.1553 151.836 10.057 152.233 9.99927C152.657 9.93728 153.086 9.90235 153.515 9.89474C153.958 9.88603 154.395 9.88169 154.825 9.88169V10.4146C154.663 10.4146 154.49 10.4146 154.305 10.4146C154.121 10.4146 153.926 10.4146 153.72 10.4146C153.345 10.4146 152.955 10.4336 152.55 10.4715C152.158 10.5066 151.772 10.5904 151.403 10.7207C151.048 10.8466 150.726 11.0417 150.458 11.2929C150.171 11.5746 149.977 11.928 149.901 12.3102C150.057 12.1471 150.253 12.0213 150.472 11.9434C150.708 11.8599 150.959 11.8185 151.211 11.8212C151.452 11.8213 151.692 11.8526 151.923 11.9145C152.143 11.9717 152.356 12.0492 152.559 12.1459C152.74 12.2315 152.908 12.3388 153.059 12.4651C153.18 12.5614 153.281 12.6787 153.354 12.8105L153.358 12.7965ZM163.485 14.3514C163.485 14.1838 163.445 14.0182 163.368 13.867C163.292 13.7154 163.187 13.5779 163.059 13.461C162.933 13.3438 162.786 13.249 162.624 13.181C162.467 13.115 162.296 13.0809 162.124 13.0811H160.935V12.4343H162.124C162.278 12.4346 162.431 12.4064 162.573 12.3513C162.71 12.2999 162.836 12.2276 162.947 12.1376C163.05 12.0539 163.136 11.9533 163.2 11.8408C163.26 11.7389 163.292 11.6248 163.294 11.5085C163.309 11.3375 163.271 11.166 163.184 11.015C163.097 10.8639 162.964 10.7397 162.803 10.6573C162.356 10.4688 161.866 10.3836 161.376 10.409C161.05 10.3977 160.724 10.4374 160.412 10.5266C160.216 10.5858 160.037 10.686 159.888 10.8196C159.776 10.9257 159.697 11.0583 159.659 11.2033C159.627 11.3327 159.603 11.464 159.589 11.5962H158.952C158.953 11.4966 158.961 11.3972 158.975 11.2984C158.994 11.1723 159.03 11.049 159.083 10.9317C159.145 10.7946 159.225 10.6654 159.321 10.5471C159.436 10.4091 159.579 10.2934 159.742 10.2065C159.949 10.0966 160.171 10.0144 160.402 9.96196C160.712 9.89393 161.029 9.86253 161.347 9.86859C161.653 9.86913 161.96 9.88533 162.264 9.91713C162.559 9.94472 162.847 10.0186 163.116 10.1355C163.395 10.2513 163.628 10.4451 163.784 10.69C163.94 10.9349 164.011 11.219 163.986 11.5029C163.991 11.6707 163.957 11.8375 163.886 11.9919C163.822 12.1252 163.736 12.2488 163.633 12.3588C163.539 12.4584 163.433 12.5465 163.315 12.621C163.219 12.6822 163.119 12.7377 163.015 12.7871C163.138 12.8476 163.256 12.9178 163.366 12.9971C163.507 13.0962 163.634 13.2106 163.745 13.3378C163.867 13.48 163.968 13.637 164.045 13.8045C164.131 13.9907 164.174 14.1916 164.171 14.3943C164.19 14.7712 164.089 15.1449 163.881 15.4686C163.699 15.7318 163.452 15.9504 163.16 16.106C162.877 16.2563 162.568 16.3598 162.247 16.4122C161.961 16.4613 161.672 16.4876 161.381 16.4906C160.974 16.4997 160.569 16.4343 160.188 16.2984C159.877 16.1847 159.597 16.0102 159.364 15.7869C159.15 15.5751 158.985 15.3235 158.882 15.0486C158.776 14.768 158.722 14.4726 158.723 14.175H159.415C159.4 14.4156 159.439 14.6565 159.531 14.8818C159.623 15.107 159.765 15.3116 159.948 15.4817C160.355 15.8088 160.881 15.9761 161.417 15.9484C161.975 15.9891 162.528 15.8313 162.966 15.5069C163.135 15.3595 163.268 15.1798 163.356 14.98C163.444 14.7803 163.485 14.5653 163.476 14.3495L163.485 14.3514ZM170.393 12.8833C170.393 13.0345 170.393 13.2133 170.393 13.4199C170.393 13.6265 170.385 13.871 170.37 14.1535C170.357 14.436 170.339 14.7621 170.314 15.1317C170.289 15.5013 170.256 15.9219 170.214 16.3935H169.521C169.565 15.9101 169.598 15.4835 169.621 15.1139C169.644 14.7443 169.661 14.4211 169.672 14.1442C169.681 13.8673 169.688 13.6271 169.691 13.4237C169.694 13.2202 169.694 13.0426 169.691 12.8908C169.699 12.4935 169.66 12.0966 169.574 11.7073C169.516 11.4338 169.4 11.1739 169.233 10.9429C169.093 10.7576 168.897 10.6148 168.671 10.5322C168.426 10.4472 168.166 10.4057 167.904 10.4099C167.628 10.4039 167.353 10.4467 167.094 10.5359C166.863 10.6231 166.665 10.7738 166.528 10.9681C166.36 11.2152 166.247 11.4914 166.196 11.7801C166.117 12.1981 166.081 12.6222 166.088 13.0466C166.088 13.1984 166.088 13.3761 166.088 13.5795C166.088 13.7839 166.099 14.021 166.111 14.2917C166.123 14.5623 166.142 14.8713 166.167 15.2175C166.192 15.5638 166.226 15.9549 166.267 16.3917H165.575C165.5 15.6699 165.45 15.0717 165.425 14.5969C165.4 14.1221 165.387 13.7276 165.388 13.4134V12.8804C165.371 12.3615 165.445 11.8435 165.608 11.347C165.722 11.005 165.917 10.6915 166.179 10.4295C166.399 10.2188 166.675 10.0664 166.979 9.98805C167.577 9.83647 168.207 9.83647 168.804 9.98805C169.108 10.0664 169.384 10.2187 169.604 10.4295C169.865 10.6911 170.059 11.0049 170.17 11.347C170.329 11.8441 170.402 12.3619 170.385 12.8804L170.393 12.8833ZM172.303 14.1675C172.302 14.3999 172.345 14.6305 172.43 14.8489C172.512 15.0595 172.643 15.2507 172.813 15.4089C172.997 15.5764 173.215 15.7072 173.454 15.7934C173.744 15.8951 174.052 15.9439 174.362 15.9371C174.643 15.9407 174.923 15.901 175.19 15.8196C175.423 15.7484 175.638 15.6341 175.822 15.4835C175.997 15.3364 176.134 15.1542 176.222 14.9506C176.318 14.7286 176.366 14.4909 176.362 14.2515C176.371 13.9703 176.322 13.6901 176.217 13.4265C176.138 13.2341 176.022 13.0564 175.876 12.9019C175.762 12.7841 175.624 12.6888 175.469 12.6219C175.364 12.5746 175.252 12.5432 175.137 12.5286C174.925 12.5221 174.725 12.4375 174.58 12.2934C174.448 12.1572 174.376 11.9789 174.38 11.795V11.2798H175.035V11.6634C175.03 11.7505 175.056 11.8367 175.11 11.9079C175.195 11.9821 175.303 12.0281 175.419 12.0386C175.556 12.0801 175.689 12.1297 175.819 12.187C176.023 12.2773 176.208 12.3998 176.367 12.5491C176.57 12.741 176.733 12.9659 176.849 13.2127C176.998 13.5429 177.068 13.8992 177.055 14.2571C177.055 14.5376 177.001 14.8158 176.896 15.0785C176.791 15.3448 176.627 15.5875 176.414 15.7906C176.178 16.0101 175.896 16.1811 175.585 16.2927C175.206 16.428 174.802 16.4933 174.396 16.485C174.102 16.4811 173.809 16.4499 173.521 16.3917C173.199 16.3305 172.891 16.215 172.613 16.051C172.286 15.8633 172.02 15.5964 171.843 15.2787C171.666 14.961 171.584 14.6044 171.607 14.2469V9.87981H172.299V14.1731L172.303 14.1675ZM182.842 12.0013C182.863 11.7803 182.833 11.5577 182.754 11.3484C182.675 11.1391 182.549 10.948 182.384 10.7879C181.997 10.5038 181.509 10.3653 181.018 10.3997C180.712 10.3876 180.406 10.432 180.118 10.5303C179.929 10.5998 179.762 10.7125 179.631 10.8579C179.527 10.9807 179.453 11.124 179.416 11.277C179.382 11.4254 179.352 11.557 179.327 11.683H178.691C178.697 11.6015 178.709 11.4995 178.728 11.3769C178.749 11.2455 178.785 11.1166 178.835 10.9924C178.893 10.8504 178.968 10.7153 179.06 10.5901C179.167 10.4467 179.303 10.3237 179.46 10.2279C179.653 10.1097 179.864 10.0211 180.087 9.96566C180.383 9.89302 180.689 9.85912 180.995 9.86489C181.298 9.86613 181.599 9.89739 181.895 9.9582C182.188 10.0154 182.466 10.1251 182.714 10.2811C182.966 10.4444 183.17 10.6634 183.309 10.9186C183.474 11.2413 183.552 11.5965 183.538 11.9537V14.2422C183.555 14.6314 183.461 15.0179 183.266 15.3622C183.101 15.6349 182.87 15.8682 182.592 16.0436C182.334 16.2058 182.045 16.3213 181.741 16.3842C181.477 16.4419 181.207 16.4732 180.936 16.4775C180.55 16.487 180.167 16.4169 179.813 16.2722C179.515 16.1458 179.253 15.9574 179.045 15.7215C178.844 15.488 178.694 15.2192 178.605 14.931C178.511 14.6277 178.464 14.3134 178.465 13.9977H179.158C179.123 14.5145 179.294 15.0252 179.64 15.4303C179.809 15.6013 180.016 15.7354 180.246 15.823C180.477 15.9106 180.725 15.9496 180.974 15.9371C181.259 15.9432 181.543 15.8943 181.807 15.7934C182.03 15.7067 182.23 15.5755 182.392 15.4089C182.546 15.2463 182.662 15.0556 182.733 14.8489C182.809 14.6287 182.846 14.3987 182.845 14.1675V12.0013H182.842ZM187.447 16.4813C187.038 16.4902 186.63 16.4249 186.247 16.289C185.933 16.1751 185.647 16.0012 185.409 15.7785C185.188 15.5685 185.017 15.3168 184.909 15.0402C184.673 14.4091 184.693 13.719 184.965 13.1007C185.101 12.8159 185.307 12.5647 185.565 12.3671C185.831 12.1702 186.137 12.026 186.465 11.9434C186.828 11.8507 187.203 11.8052 187.579 11.8081C187.586 11.7705 187.59 11.7324 187.589 11.6942V11.5897C187.599 11.4455 187.569 11.3014 187.503 11.1708C187.436 11.0403 187.336 10.9275 187.21 10.843C187.101 10.7672 186.983 10.7027 186.859 10.6507C186.739 10.6004 186.621 10.5434 186.508 10.48C186.401 10.4212 186.309 10.3424 186.237 10.2484C186.16 10.14 186.123 10.0116 186.129 9.88169H186.915C186.912 9.9294 186.92 9.97711 186.937 10.0221C186.954 10.0671 186.981 10.1085 187.015 10.1439C187.085 10.2112 187.166 10.2685 187.254 10.3138C187.347 10.3629 187.452 10.4155 187.567 10.4715C187.684 10.5277 187.79 10.6015 187.881 10.6899C187.983 10.7917 188.064 10.91 188.12 11.039C188.193 11.2177 188.227 11.408 188.22 11.599C188.22 11.6457 188.22 11.6924 188.22 11.739C188.22 11.7857 188.212 11.8323 188.206 11.8874C188.429 11.9337 188.646 12.0042 188.852 12.0974C189.35 12.3183 189.739 12.7068 189.942 13.1848C190.072 13.4979 190.134 13.8319 190.124 14.1675C190.125 14.4651 190.071 14.7606 189.965 15.0411C189.861 15.3176 189.693 15.5696 189.474 15.7794C189.236 16.0023 188.951 16.1762 188.636 16.2899C188.257 16.4252 187.853 16.4905 187.447 16.4822V16.4813ZM187.447 15.939C187.98 15.9681 188.505 15.8005 188.907 15.4724C189.088 15.3009 189.227 15.096 189.318 14.8709C189.408 14.6458 189.447 14.4056 189.431 14.1657C189.439 13.8773 189.39 13.59 189.286 13.3182C189.201 13.1034 189.062 12.9111 188.879 12.7582C188.697 12.6121 188.483 12.5048 188.252 12.4437C187.725 12.31 187.169 12.31 186.642 12.4437C186.41 12.5052 186.194 12.6124 186.01 12.7582C185.825 12.9106 185.681 13.1027 185.593 13.3182C185.486 13.5893 185.435 13.8769 185.443 14.1657C185.428 14.4063 185.467 14.6472 185.559 14.8725C185.651 15.0978 185.793 15.3022 185.976 15.4724C186.383 15.7995 186.909 15.9667 187.445 15.939H187.447ZM196.339 12.8814C196.339 13.0326 196.339 13.2115 196.339 13.4181C196.339 13.6247 196.331 13.8692 196.316 14.1516C196.303 14.4341 196.285 14.7602 196.26 15.1298C196.235 15.4994 196.202 15.92 196.16 16.3917H195.467C195.511 15.9082 195.544 15.4816 195.567 15.112C195.59 14.7424 195.607 14.4193 195.619 14.1424C195.628 13.8655 195.635 13.6253 195.638 13.4218C195.641 13.2183 195.641 13.0407 195.638 12.8889C195.646 12.4916 195.607 12.0947 195.521 11.7054C195.463 11.4319 195.347 11.172 195.18 10.941C195.04 10.7557 194.844 10.6129 194.618 10.5303C194.373 10.4453 194.113 10.4039 193.851 10.4081C193.575 10.4021 193.3 10.4448 193.041 10.5341C192.81 10.6214 192.613 10.7721 192.475 10.9662C192.307 11.2134 192.194 11.4895 192.143 11.7782C192.064 12.1962 192.028 12.6203 192.035 13.0447C192.035 13.1966 192.035 13.3742 192.035 13.5777C192.035 13.7811 192.043 14.0185 192.058 14.2898C192.071 14.5605 192.089 14.8691 192.114 15.2157C192.139 15.5622 192.172 15.9536 192.214 16.3898H191.522C191.447 15.668 191.397 15.0698 191.372 14.595C191.347 14.1203 191.334 13.7258 191.335 13.4115V12.8786C191.318 12.3597 191.392 11.8417 191.555 11.3452C191.669 11.0032 191.864 10.6896 192.126 10.4277C192.346 10.2169 192.622 10.0646 192.926 9.98623C193.225 9.91057 193.533 9.87227 193.843 9.87235C194.15 9.87264 194.455 9.91094 194.751 9.98623C195.055 10.0645 195.331 10.2168 195.551 10.4277C195.812 10.6892 196.006 11.0031 196.117 11.3452C196.276 11.8423 196.349 12.36 196.332 12.8786L196.339 12.8814ZM198.249 14.1657C198.248 14.398 198.291 14.6286 198.376 14.847C198.458 15.0576 198.589 15.2488 198.759 15.407C198.943 15.5745 199.161 15.7053 199.4 15.7915C199.69 15.8932 199.998 15.942 200.308 15.9353C200.589 15.9389 200.869 15.8992 201.136 15.8177C201.369 15.7465 201.584 15.6322 201.768 15.4817C201.943 15.3345 202.08 15.1523 202.168 14.9487C202.264 14.7267 202.312 14.4891 202.308 14.2497C202.317 13.9685 202.268 13.6883 202.163 13.4246C202.084 13.2322 201.968 13.0545 201.822 12.9C201.708 12.7823 201.569 12.6871 201.415 12.6201C201.31 12.5728 201.198 12.5413 201.083 12.5267C200.872 12.52 200.672 12.4354 200.527 12.2915C200.395 12.1553 200.323 11.977 200.327 11.7931V11.2779H200.982V11.6615C200.976 11.7487 201.003 11.835 201.057 11.906C201.142 11.9803 201.25 12.0263 201.366 12.0367C201.503 12.0782 201.636 12.1277 201.766 12.1851C201.97 12.2754 202.155 12.3979 202.314 12.5473C202.517 12.7391 202.68 12.964 202.796 13.2109C202.945 13.5411 203.015 13.8973 203.002 14.2553C203.002 14.5357 202.948 14.8139 202.843 15.0766C202.738 15.343 202.574 15.5856 202.361 15.7887C202.126 16.0081 201.844 16.1791 201.533 16.2908C201.154 16.4261 200.75 16.4914 200.344 16.4832C200.05 16.4793 199.757 16.448 199.469 16.3898C199.147 16.3286 198.839 16.2132 198.561 16.0491C198.234 15.8616 197.968 15.5947 197.791 15.277C197.614 14.9592 197.532 14.6026 197.555 14.245V9.87793H198.247V14.1712L198.249 14.1657ZM45.0381 25.0782C45.0373 24.7683 45.0945 24.4607 45.2071 24.1691C45.316 23.883 45.49 23.6222 45.7171 23.4047C45.9618 23.1758 46.2551 22.9972 46.5781 22.8802C46.9681 22.7421 47.383 22.6755 47.8001 22.6842C48.0452 22.6867 48.2896 22.7102 48.5301 22.7542C48.5971 22.4938 48.635 22.2276 48.6431 21.9599C48.6447 21.8739 48.6194 21.7893 48.5704 21.7164C48.5214 21.6434 48.4508 21.5854 48.3671 21.5493C48.1415 21.4477 47.8924 21.3995 47.6421 21.4092C47.3849 21.3968 47.1286 21.4467 46.8981 21.5539C46.8136 21.5964 46.7438 21.6603 46.6965 21.7382C46.6493 21.8162 46.6266 21.905 46.6311 21.9945H45.9101C45.9056 21.8182 45.9541 21.6442 46.0501 21.4924C46.1436 21.3502 46.2718 21.2306 46.4241 21.1433C46.5889 21.0498 46.7689 20.982 46.9571 20.9426C47.1597 20.8986 47.3671 20.8767 47.5751 20.8772C48.0155 20.8566 48.4524 20.9601 48.8291 21.1741C48.9717 21.2535 49.0898 21.3662 49.1719 21.501C49.2539 21.6358 49.297 21.7881 49.2971 21.9431C49.2935 22.2791 49.2464 22.6135 49.1571 22.939C49.6033 23.1195 49.9744 23.4308 50.2141 23.8257C50.444 24.2085 50.5635 24.6403 50.5611 25.0791C50.5617 25.3887 50.5045 25.696 50.3921 25.9873C50.2818 26.2753 50.1081 26.5386 49.8821 26.7601C49.6397 26.9936 49.3459 27.1754 49.0211 27.293C48.231 27.5551 47.3682 27.5551 46.5781 27.293C46.2533 27.1754 45.9595 26.9936 45.7171 26.7601C45.4911 26.5386 45.3174 26.2753 45.2071 25.9873C45.0947 25.696 45.0375 25.3887 45.0381 25.0791V25.0782ZM45.7311 25.0782C45.7283 25.333 45.7757 25.5861 45.8711 25.8249C45.9593 26.0452 46.0955 26.2461 46.2711 26.4148C46.4537 26.5854 46.6742 26.7167 46.9171 26.7993C47.4861 26.9798 48.1031 26.9798 48.6721 26.7993C48.9165 26.7175 49.1385 26.5862 49.3221 26.4148C49.4979 26.2462 49.6341 26.0453 49.7221 25.8249C49.9094 25.3392 49.9094 24.8079 49.7221 24.3222C49.6347 24.1029 49.4984 23.9034 49.3221 23.737C49.1374 23.568 48.9156 23.4384 48.6721 23.3571C48.1032 23.1762 47.486 23.1762 46.9171 23.3571C46.6751 23.4392 46.4548 23.5687 46.2711 23.737C46.095 23.9035 45.9587 24.103 45.8711 24.3222C45.7758 24.561 45.7283 24.8141 45.7311 25.0689V25.0782ZM54.2951 20.8848C54.2859 21.1394 54.3553 21.3911 54.4951 21.6099C54.6295 21.8058 54.7935 21.9825 54.9821 22.1345C55.1754 22.2919 55.3861 22.4475 55.6141 22.6012C55.8475 22.7606 56.0597 22.9454 56.2461 23.1518C56.4525 23.3846 56.6169 23.6472 56.7331 23.9293C56.8766 24.2971 56.9444 24.6869 56.9331 25.0782C56.9353 25.3981 56.8926 25.7169 56.8061 26.0265C56.7297 26.3061 56.5891 26.5669 56.3941 26.7908C56.1884 27.017 55.9264 27.1926 55.6311 27.3023C54.8583 27.5571 54.0146 27.5525 53.2451 27.2893C52.925 27.1669 52.6408 26.9748 52.4161 26.7293C52.1965 26.4831 52.0341 26.1971 51.9391 25.8893C51.8327 25.5444 51.7805 25.1869 51.7841 24.8281V24.1906H52.4771V24.8196C52.4736 25.1107 52.516 25.4007 52.6031 25.6802C52.6793 25.9245 52.8049 26.1529 52.9731 26.3531C53.1369 26.5437 53.347 26.6951 53.5861 26.7946C53.8593 26.9046 54.1546 26.9584 54.4521 26.9523C54.7379 26.9598 55.0225 26.9154 55.2901 26.8217C55.5053 26.7433 55.6953 26.6148 55.8421 26.4484C55.9878 26.2718 56.0902 26.0676 56.1421 25.85C56.2081 25.5854 56.2396 25.3144 56.2361 25.0427C56.248 24.7066 56.1797 24.3721 56.0361 24.0636C55.9093 23.812 55.7406 23.5808 55.5361 23.3786C55.3362 23.1835 55.1169 23.0066 54.8811 22.8503C54.6499 22.6981 54.431 22.5303 54.2261 22.3482C54.027 22.1712 53.8583 21.9666 53.7261 21.7415C53.5836 21.4794 53.5147 21.1878 53.5261 20.894L54.2951 20.8848ZM59.0031 25.2611C59.0007 25.4881 59.0452 25.7134 59.1341 25.9247C59.2207 26.1276 59.355 26.3097 59.5271 26.4576C59.7155 26.6169 59.9367 26.7389 60.1771 26.8161C60.4668 26.9077 60.7713 26.9519 61.0771 26.9468C61.6024 26.973 62.1204 26.8226 62.5371 26.523C62.7243 26.365 62.8706 26.1692 62.9646 25.9506C63.0587 25.7319 63.0982 25.4961 63.0801 25.2611C63.0898 24.9772 63.0357 24.6946 62.9211 24.4314C62.8249 24.222 62.6756 24.0375 62.4861 23.8938C62.2935 23.7533 62.0697 23.6548 61.8311 23.6054C61.5657 23.5489 61.2943 23.521 61.0221 23.5224C60.751 23.5202 60.4812 23.557 60.2221 23.6316C59.9867 23.6987 59.7685 23.8102 59.5811 23.9591C59.3968 24.1088 59.2512 24.2955 59.1551 24.5051C59.0482 24.7441 58.9957 25.0013 59.0011 25.2602L59.0031 25.2611ZM62.9901 20.937V21.5138H60.4721C60.1721 21.5138 59.9271 21.5182 59.7371 21.5269C59.5832 21.5266 59.4311 21.5584 59.2921 21.6202C59.2388 21.6488 59.1923 21.6872 59.1553 21.7331C59.1184 21.779 59.0917 21.8314 59.0771 21.8871C59.0338 22.0618 59.015 22.2409 59.0211 22.4201L59.0401 23.835C59.3037 23.5846 59.6146 23.3818 59.9571 23.2367C60.3436 23.0686 60.7657 22.9837 61.1921 22.9885C61.5028 22.9888 61.8123 23.0239 62.1141 23.093C62.4161 23.1598 62.6998 23.2847 62.9471 23.4598C63.2034 23.6454 63.409 23.885 63.5471 24.1589C63.7119 24.5047 63.7902 24.881 63.7761 25.2592C63.778 25.5511 63.7242 25.8409 63.6171 26.1151C63.5127 26.3805 63.3483 26.6218 63.1351 26.8226C62.9001 27.0386 62.6175 27.2041 62.3071 27.3079C61.9256 27.4343 61.5228 27.495 61.1181 27.4871C60.8246 27.4845 60.5318 27.4583 60.2431 27.4088C59.9234 27.3567 59.6162 27.2517 59.3361 27.0989C59.0449 26.9376 58.7994 26.7136 58.6201 26.4455C58.4111 26.1093 58.3105 25.7241 58.3301 25.3358V22.5405C58.3138 22.2164 58.3679 21.8926 58.4891 21.5885C58.5757 21.3875 58.7326 21.2198 58.9341 21.1125C59.1474 21.0107 59.3826 20.9555 59.6221 20.951C59.8888 20.9392 60.1821 20.9333 60.5021 20.9333L62.9901 20.937ZM69.7481 25.3573C69.7486 25.1894 69.7086 25.0235 69.6311 24.8719C69.5549 24.7205 69.4503 24.5829 69.3221 24.4659C69.1963 24.349 69.0489 24.2542 68.8871 24.1859C68.7299 24.1201 68.5594 24.086 68.3871 24.0861H67.1981V23.4393H68.3871C68.5412 23.4394 68.6937 23.4112 68.8361 23.3562C68.9726 23.3044 69.099 23.2319 69.2101 23.1415C69.3132 23.0579 69.399 22.9573 69.4631 22.8447C69.5232 22.7429 69.5555 22.6287 69.5571 22.5125C69.5721 22.3413 69.5337 22.1698 69.4466 22.0186C69.3595 21.8674 69.2273 21.743 69.0661 21.6604C68.6187 21.4719 68.1292 21.3867 67.6391 21.412C67.313 21.4007 66.9871 21.4405 66.6751 21.5297C66.4788 21.5889 66.2996 21.6891 66.1511 21.8227C66.0388 21.9291 65.9596 22.0621 65.9221 22.2073C65.8898 22.3367 65.8664 22.4679 65.8521 22.6002H65.2151C65.2163 22.5009 65.224 22.4018 65.2381 22.3034C65.2565 22.1772 65.2929 22.0539 65.3461 21.9366C65.4074 21.7994 65.4874 21.6702 65.5841 21.5521C65.6994 21.4141 65.8424 21.2984 66.0051 21.2114C66.2118 21.1016 66.434 21.0193 66.6651 20.9668C66.9746 20.8988 67.2921 20.8674 67.6101 20.8735C67.9165 20.8739 68.2226 20.8901 68.5271 20.9221C68.8222 20.9499 69.1102 21.0237 69.3791 21.1405C69.6578 21.2564 69.8912 21.4502 70.047 21.695C70.2028 21.9399 70.2734 22.2239 70.2491 22.5078C70.2539 22.6756 70.2198 22.8425 70.1491 22.9969C70.0847 23.1302 69.9994 23.2538 69.8961 23.3636C69.8025 23.4633 69.6956 23.5515 69.5781 23.6259C69.4818 23.6869 69.3816 23.7424 69.2781 23.7921C69.4013 23.8523 69.5187 23.9223 69.6291 24.0012C69.7695 24.1002 69.8968 24.2145 70.0081 24.3418C70.1302 24.484 70.2311 24.641 70.3081 24.8085C70.394 24.9947 70.437 25.1957 70.4341 25.3984C70.4525 25.7752 70.3516 26.1489 70.1441 26.4726C69.9618 26.7359 69.7146 26.9545 69.4231 27.1101C69.1398 27.2601 68.831 27.3637 68.5101 27.4162C68.2244 27.4654 67.9346 27.4917 67.6441 27.4946C67.2368 27.5035 66.8316 27.4382 66.4511 27.3023C66.1407 27.1888 65.8597 27.0147 65.6271 26.7918C65.4127 26.58 65.2484 26.3285 65.1451 26.0535C65.0389 25.773 64.9851 25.4775 64.9861 25.18H65.6781C65.6628 25.4206 65.7025 25.6614 65.7943 25.8867C65.8862 26.1119 66.0283 26.3164 66.2111 26.4866C66.6177 26.8136 67.1442 26.9809 67.6801 26.9533C68.2375 26.9943 68.7909 26.837 69.2291 26.5127C69.3982 26.3653 69.5312 26.1857 69.6192 25.986C69.7072 25.7863 69.7481 25.5712 69.7391 25.3554L69.7481 25.3573ZM76.6561 23.8892C76.6561 24.0404 76.6561 24.2195 76.6561 24.4267C76.6561 24.6339 76.6484 24.8785 76.6331 25.1604C76.6204 25.4428 76.6018 25.7689 76.5771 26.1385C76.5524 26.5081 76.5191 26.9287 76.4771 27.4003H75.7851C75.8284 26.9169 75.8618 26.4903 75.8851 26.1207C75.9084 25.7511 75.9258 25.4279 75.9371 25.151C75.9464 24.8741 75.9528 24.6339 75.9561 24.4304C75.9594 24.227 75.9594 24.0494 75.9561 23.8975C75.9638 23.5002 75.9246 23.1033 75.8391 22.7141C75.7812 22.4406 75.6652 22.1807 75.4981 21.9497C75.3577 21.7646 75.1623 21.6218 74.9361 21.539C74.6907 21.4543 74.4307 21.4128 74.1691 21.4167C73.893 21.4106 73.6182 21.4534 73.3591 21.5427C73.1279 21.6299 72.9305 21.7806 72.7931 21.9749C72.6253 22.222 72.5124 22.4982 72.4611 22.7869C72.3823 23.2049 72.3464 23.629 72.3541 24.0534C72.3541 24.2052 72.3541 24.3828 72.3541 24.5863C72.3541 24.7898 72.3618 25.0272 72.3771 25.2984C72.3898 25.5691 72.4084 25.8777 72.4331 26.2243C72.4578 26.5709 72.4911 26.9626 72.5331 27.3994H71.8401C71.7654 26.677 71.7154 26.0787 71.6901 25.6046C71.6648 25.1304 71.6521 24.736 71.6521 24.4212V23.8882C71.6354 23.3696 71.7098 22.8519 71.8721 22.3557C71.9861 22.0137 72.1813 21.7 72.4431 21.4382C72.6631 21.2274 72.9392 21.0751 73.2431 20.9968C73.8406 20.8453 74.4706 20.8453 75.0681 20.9968C75.372 21.075 75.6481 21.2274 75.8681 21.4382C76.1292 21.6998 76.3228 22.0136 76.4341 22.3557C76.593 22.8525 76.6656 23.3699 76.6491 23.8882L76.6561 23.8892ZM80.5681 27.4881C80.1553 27.4977 79.7454 27.4215 79.3681 27.265C79.0354 27.12 78.7473 26.8992 78.5301 26.6228C78.293 26.3145 78.1231 25.9657 78.0301 25.5962C77.9152 25.1456 77.8602 24.6836 77.8661 24.2205C77.8601 23.8046 77.8976 23.3892 77.9781 22.9801C78.0393 22.6705 78.1432 22.3696 78.2871 22.085C78.4008 21.8594 78.5577 21.655 78.7501 21.4821C78.918 21.334 79.1088 21.2103 79.3161 21.1152C79.5108 21.0251 79.7187 20.9622 79.9331 20.9286C80.1404 20.8968 80.35 20.8806 80.5601 20.8801C80.7419 20.8805 80.9234 20.8936 81.1031 20.9193C81.2922 20.9458 81.4774 20.9924 81.6551 21.0583C81.8411 21.128 82.0171 21.2189 82.1791 21.329C82.3538 21.4484 82.5056 21.5945 82.6281 21.7611C82.8293 21.4976 83.0914 21.2797 83.3951 21.1237C83.7128 20.9592 84.0709 20.8749 84.4341 20.8791C84.7528 20.8738 85.0684 20.9377 85.3561 21.0658C85.6235 21.1878 85.8585 21.3638 86.0441 21.581C86.2361 21.8077 86.3821 22.0652 86.4751 22.3408C86.5773 22.6426 86.6279 22.9576 86.6251 23.2741L86.2511 27.362H85.5641L85.9381 23.5886V23.3963C85.9423 23.1156 85.9012 22.8359 85.8161 22.5666C85.7452 22.3402 85.6296 22.128 85.4751 21.9413C85.3357 21.7754 85.1579 21.6411 84.9551 21.5484C84.7508 21.457 84.5267 21.4107 84.3001 21.413C84.1379 21.4108 83.977 21.4407 83.8281 21.5007C83.6918 21.5565 83.5656 21.6318 83.4541 21.7238C83.3439 21.8154 83.2465 21.9195 83.1641 22.0337C83.0843 22.1435 83.0108 22.2572 82.9441 22.3743C83.1608 22.9672 83.2624 23.5915 83.2441 24.2177C83.2501 24.6805 83.1967 25.1424 83.0851 25.5934C82.9964 25.9628 82.8295 26.3118 82.5941 26.6201C82.3768 26.8962 82.0886 27.117 81.7561 27.2622C81.3824 27.4178 80.9762 27.494 80.5671 27.4853L80.5681 27.4881ZM80.5681 26.9551C80.8516 26.9648 81.1332 26.9083 81.3874 26.7908C81.6417 26.6733 81.8605 26.4985 82.0241 26.2822C82.4252 25.6628 82.61 24.9423 82.5531 24.2205C82.5618 23.7829 82.5131 23.346 82.4081 22.9194C82.3322 22.6085 82.1941 22.3136 82.0011 22.0505C81.8431 21.8386 81.6263 21.6709 81.3741 21.5651C81.1197 21.464 80.8456 21.4135 80.5691 21.4167C80.2956 21.414 80.0241 21.4599 79.7691 21.5521C79.5162 21.6499 79.2973 21.8115 79.1371 22.0187C78.9391 22.2786 78.7977 22.5723 78.7211 22.883C78.6116 23.3225 78.5612 23.773 78.5711 24.2242C78.5632 24.6414 78.6102 25.0581 78.7111 25.4646C78.7849 25.7684 78.9207 26.0561 79.1111 26.312C79.2731 26.5232 79.4908 26.6917 79.7431 26.8012C80.0017 26.907 80.2817 26.9598 80.5641 26.956L80.5681 26.9551Z"
        fill="white" />
    <path fill-rule="evenodd" clip-rule="evenodd"
        d="M90.1889 20.8859C90.1797 21.1406 90.2492 21.3923 90.3889 21.6111C90.5234 21.8069 90.6874 21.9835 90.8759 22.1357C91.0699 22.2931 91.2806 22.4486 91.5079 22.6023C91.7409 22.7618 91.9528 22.9467 92.1389 23.153C92.3453 23.3858 92.5098 23.6484 92.6259 23.9305C92.7694 24.2983 92.8372 24.6881 92.8259 25.0794C92.8282 25.399 92.7855 25.7175 92.6989 26.0267C92.6225 26.3064 92.4819 26.5672 92.2869 26.7912C92.0812 27.0173 91.8192 27.1929 91.5239 27.3026C90.7508 27.5575 89.9067 27.5529 89.1369 27.2895C88.8171 27.167 88.5333 26.975 88.3089 26.7295C88.0895 26.4832 87.9271 26.1973 87.8319 25.8895C87.726 25.5446 87.6742 25.1871 87.6779 24.8283V24.1909H88.3699V24.82C88.3665 25.1111 88.4093 25.4011 88.4969 25.6805C88.573 25.9248 88.6986 26.1533 88.8669 26.3534C89.0306 26.5441 89.2408 26.6954 89.4799 26.7949C89.7527 26.9049 90.0478 26.9587 90.3449 26.9526C90.6307 26.9601 90.9153 26.9157 91.1829 26.8219C91.3981 26.7435 91.5881 26.615 91.7349 26.4486C91.8806 26.2721 91.983 26.0679 92.0349 25.8504C92.1009 25.5857 92.1324 25.3146 92.1289 25.043C92.1411 24.7068 92.0728 24.3724 91.9289 24.064C91.8023 23.8123 91.6335 23.581 91.4289 23.3789C91.229 23.1839 91.0096 23.007 90.7739 22.8506C90.5428 22.6982 90.3239 22.5304 90.1189 22.3485C89.9197 22.1715 89.7511 21.9668 89.6189 21.7418C89.4764 21.4797 89.4076 21.1881 89.4189 20.8944L90.1889 20.8859ZM98.1819 23.8036C98.2572 23.6715 98.3591 23.5542 98.4819 23.4582C98.633 23.3321 98.8011 23.2251 98.9819 23.1399C99.1854 23.0431 99.3988 22.9655 99.6189 22.9085C99.8501 22.8467 100.089 22.8153 100.33 22.8151C100.634 22.8095 100.938 22.8476 101.23 22.9281C101.46 22.9921 101.672 23.1023 101.852 23.251C102.012 23.3884 102.136 23.5591 102.212 23.7494C102.292 23.9534 102.332 24.1695 102.329 24.3869L102.236 27.4006H101.543L101.637 24.6006C101.651 24.4301 101.628 24.2588 101.569 24.0968C101.511 23.9348 101.418 23.7856 101.296 23.658C100.984 23.422 100.586 23.309 100.187 23.3434C99.9621 23.3276 99.7363 23.3547 99.5231 23.4231C99.3099 23.4914 99.1138 23.5996 98.9469 23.741C98.8049 23.8829 98.6949 24.0499 98.6233 24.2322C98.5516 24.4144 98.5199 24.6083 98.5299 24.8022V25.9119H97.8379V24.8022C97.8481 24.6083 97.8165 24.4146 97.745 24.2323C97.6736 24.05 97.5637 23.883 97.4219 23.741C97.2549 23.5997 97.0589 23.4916 96.8457 23.4233C96.6325 23.3549 96.4067 23.3277 96.1819 23.3434C95.7824 23.3088 95.3843 23.4218 95.0729 23.658C94.9508 23.7854 94.8575 23.9347 94.7987 24.0967C94.7399 24.2587 94.7169 24.43 94.7309 24.6006L94.8249 27.4006H94.1329L94.0359 24.2179C94.034 23.7405 94.1227 23.2665 94.2979 22.8179C94.4334 22.4734 94.6463 22.16 94.9223 21.8986C95.1982 21.6371 95.5309 21.4338 95.8979 21.3022C96.2722 21.1651 96.6615 21.0671 97.0589 21.0101C97.4832 20.9479 97.9115 20.913 98.3409 20.9055C98.7843 20.8968 99.2209 20.8925 99.6509 20.8925V21.4179C99.4889 21.4179 99.3159 21.4179 99.1319 21.4179C98.9479 21.4179 98.7529 21.4179 98.5469 21.4179C98.1561 21.4187 97.7657 21.4376 97.3769 21.4748C96.9844 21.5095 96.5987 21.593 96.2299 21.7232C95.8749 21.8489 95.5527 22.0439 95.2849 22.2953C94.9976 22.5768 94.804 22.9303 94.7279 23.3126C94.8841 23.1496 95.08 23.0238 95.2989 22.9458C95.5349 22.8623 95.7856 22.8208 96.0379 22.8235C96.2787 22.8236 96.5184 22.8551 96.7499 22.9169C96.97 22.9741 97.1834 23.0516 97.3869 23.1483C97.5678 23.2336 97.7359 23.3406 97.8869 23.4666C98.0081 23.563 98.1083 23.6802 98.1819 23.8119V23.8036ZM107.935 23.0093C107.955 22.7883 107.925 22.5657 107.846 22.3565C107.767 22.1472 107.641 21.9561 107.477 21.796C107.089 21.5118 106.602 21.3733 106.11 21.4077C105.804 21.3955 105.498 21.4399 105.21 21.5384C105.021 21.6077 104.853 21.7203 104.723 21.8659C104.618 21.9886 104.545 22.1319 104.508 22.285C104.474 22.4337 104.444 22.5691 104.419 22.691H103.782C103.789 22.6095 103.801 22.5075 103.82 22.3849C103.841 22.2535 103.878 22.1246 103.928 22.0004C103.985 21.8584 104.06 21.7234 104.152 21.5981C104.26 21.4549 104.395 21.332 104.552 21.2359C104.745 21.1181 104.956 21.0295 105.179 20.9737C105.475 20.9013 105.781 20.8674 106.087 20.8729C106.39 20.8739 106.691 20.9052 106.987 20.9662C107.28 21.0233 107.558 21.133 107.806 21.2891C108.057 21.4524 108.262 21.6714 108.4 21.9266C108.565 22.2493 108.643 22.6044 108.629 22.9617V25.2502C108.646 25.6394 108.553 26.0259 108.358 26.3702C108.193 26.6429 107.962 26.876 107.684 27.0515C107.425 27.2137 107.136 27.3292 106.832 27.3922C106.57 27.4496 106.301 27.4809 106.032 27.4855C105.646 27.4952 105.262 27.4251 104.909 27.2802C104.612 27.1537 104.349 26.9653 104.142 26.7295C103.94 26.4961 103.791 26.2273 103.702 25.939C103.608 25.6357 103.56 25.3214 103.562 25.0057H104.254C104.218 25.5225 104.39 26.0332 104.736 26.4384C104.904 26.6092 105.111 26.7431 105.342 26.8307C105.572 26.9183 105.82 26.9574 106.069 26.9451C106.354 26.9508 106.638 26.9016 106.902 26.8005C107.125 26.7138 107.324 26.5825 107.487 26.4159C107.641 26.2533 107.757 26.0627 107.828 25.8559C107.904 25.6358 107.941 25.4058 107.94 25.1746V23.0046L107.935 23.0093ZM112.54 27.4893C112.13 27.498 111.723 27.4327 111.34 27.297C111.026 27.1827 110.74 27.0085 110.502 26.7855C110.28 26.5757 110.11 26.324 110.002 26.0473C109.765 25.4162 109.785 24.726 110.058 24.1078C110.194 23.823 110.399 23.5717 110.658 23.3742C110.924 23.1774 111.23 23.0332 111.558 22.9505C111.921 22.8578 112.296 22.8122 112.672 22.8151C112.679 22.7775 112.682 22.7394 112.681 22.7013V22.5967C112.689 22.435 112.652 22.2741 112.573 22.1301C112.505 22.0176 112.413 21.9194 112.302 21.8416C112.193 21.7659 112.075 21.7015 111.951 21.6494C111.831 21.5991 111.713 21.5423 111.6 21.4795C111.493 21.4207 111.401 21.3419 111.328 21.2481C111.252 21.1394 111.214 21.011 111.221 20.8813H112.007C112.004 20.929 112.012 20.9767 112.029 21.0217C112.046 21.0667 112.073 21.1081 112.107 21.1435C112.177 21.2111 112.258 21.2683 112.346 21.3134C112.44 21.3629 112.546 21.4151 112.659 21.4711C112.776 21.5273 112.882 21.6011 112.973 21.6896C113.075 21.7913 113.156 21.9096 113.212 22.0386C113.284 22.2173 113.318 22.4076 113.312 22.5986C113.312 22.6453 113.312 22.6919 113.312 22.7386C113.312 22.7852 113.304 22.8319 113.298 22.887C113.521 22.9333 113.738 23.0034 113.944 23.096C114.442 23.3167 114.832 23.7052 115.035 24.1834C115.164 24.4966 115.226 24.8306 115.217 25.1662C115.218 25.4637 115.164 25.7593 115.058 26.0398C114.954 26.3164 114.786 26.5683 114.567 26.778C114.329 27.001 114.043 27.1752 113.729 27.2895C113.35 27.4246 112.946 27.4898 112.54 27.4818V27.4893ZM112.54 26.9479C113.073 26.9769 113.598 26.8093 114 26.4813C114.18 26.3098 114.32 26.1049 114.41 25.8798C114.501 25.6547 114.539 25.4145 114.524 25.1746C114.532 24.8862 114.483 24.5989 114.379 24.3271C114.294 24.1124 114.154 23.9202 113.972 23.7672C113.79 23.6207 113.576 23.5133 113.345 23.4526C112.818 23.3184 112.262 23.3184 111.735 23.4526C111.503 23.5141 111.287 23.6214 111.103 23.7672C110.918 23.9198 110.775 24.1119 110.687 24.3271C110.58 24.5983 110.53 24.8859 110.538 25.1746C110.522 25.4152 110.562 25.6561 110.654 25.8814C110.746 26.1067 110.888 26.3112 111.071 26.4813C111.477 26.8084 112.004 26.9756 112.54 26.9479ZM121.431 23.8903C121.431 24.0415 121.431 24.2207 121.431 24.4279C121.431 24.6351 121.423 24.8797 121.408 25.1615C121.395 25.444 121.377 25.7701 121.352 26.1397C121.327 26.5093 121.294 26.9299 121.252 27.4015H120.56C120.604 26.9181 120.637 26.4915 120.66 26.1219C120.683 25.7523 120.699 25.4288 120.708 25.1513C120.717 24.8744 120.724 24.6342 120.727 24.4308C120.73 24.2273 120.73 24.0496 120.727 23.8978C120.735 23.5005 120.696 23.1036 120.611 22.7143C120.553 22.4407 120.437 22.1808 120.269 21.9499C120.129 21.7646 119.933 21.6218 119.707 21.5393C119.462 21.4544 119.201 21.413 118.94 21.417C118.664 21.4109 118.389 21.4536 118.13 21.543C117.899 21.6302 117.701 21.7809 117.564 21.9751C117.396 22.2224 117.283 22.4985 117.232 22.7871C117.153 23.2052 117.117 23.6293 117.125 24.0536C117.125 24.2055 117.125 24.3832 117.125 24.5866C117.125 24.7901 117.133 25.0275 117.148 25.2988C117.161 25.57 117.179 25.8787 117.204 26.2246C117.229 26.5706 117.262 26.9622 117.304 27.3997H116.612C116.537 26.6773 116.487 26.0787 116.462 25.6039C116.437 25.1292 116.424 24.7347 116.425 24.4204V23.8875C116.408 23.3689 116.483 22.8513 116.645 22.355C116.759 22.0131 116.954 21.6995 117.216 21.4375C117.436 21.2267 117.712 21.0743 118.016 20.996C118.613 20.8445 119.243 20.8445 119.841 20.996C120.145 21.0743 120.421 21.2267 120.641 21.4375C120.902 21.6992 121.096 22.013 121.207 22.355C121.366 22.8519 121.438 23.3692 121.422 23.8875L121.431 23.8903ZM123.341 25.1746C123.34 25.4069 123.382 25.6375 123.467 25.8559C123.549 26.0666 123.681 26.2577 123.851 26.4159C124.034 26.5834 124.252 26.7143 124.492 26.8005C124.782 26.9025 125.09 26.9515 125.4 26.9451C125.681 26.9489 125.961 26.9092 126.228 26.8276C126.461 26.7566 126.676 26.6422 126.86 26.4915C127.035 26.3443 127.171 26.1621 127.26 25.9586C127.356 25.7366 127.404 25.499 127.4 25.2596C127.409 24.9784 127.36 24.6981 127.255 24.4345C127.176 24.242 127.06 24.0644 126.914 23.9099C126.8 23.7921 126.661 23.6969 126.507 23.6299C126.402 23.5824 126.29 23.5509 126.175 23.5366C125.963 23.5299 125.763 23.445 125.618 23.3005C125.486 23.1642 125.414 22.9859 125.418 22.802V22.2869H126.073V22.6704C126.067 22.7574 126.093 22.8437 126.147 22.915C126.232 22.9891 126.34 23.035 126.456 23.0457C126.592 23.0873 126.726 23.1369 126.856 23.1941C127.059 23.2846 127.244 23.4075 127.403 23.5571C127.606 23.7487 127.769 23.9737 127.885 24.2207C128.033 24.551 128.103 24.9072 128.091 25.2651C128.091 25.5456 128.037 25.8237 127.932 26.0865C127.827 26.3529 127.663 26.5956 127.45 26.7986C127.214 27.0177 126.932 27.1887 126.622 27.3007C126.243 27.4357 125.839 27.501 125.433 27.493C125.139 27.4891 124.846 27.4579 124.558 27.3997C124.236 27.3382 123.928 27.2228 123.65 27.059C123.323 26.8712 123.057 26.6043 122.88 26.2866C122.703 25.9689 122.621 25.6124 122.644 25.2549V20.8859H123.337V25.1793L123.341 25.1746ZM133.233 25.1746C133.232 25.4069 133.275 25.6376 133.36 25.8559C133.442 26.0666 133.574 26.2577 133.744 26.4159C133.927 26.5834 134.146 26.7142 134.385 26.8005C134.675 26.9025 134.983 26.9515 135.293 26.9451C135.574 26.9489 135.854 26.9092 136.121 26.8276C136.353 26.7564 136.568 26.6421 136.752 26.4915C136.927 26.3444 137.064 26.1622 137.152 25.9586C137.248 25.7366 137.296 25.499 137.292 25.2596C137.301 24.9784 137.252 24.6981 137.147 24.4345C137.067 24.2421 136.951 24.0644 136.805 23.9099C136.691 23.792 136.552 23.6968 136.398 23.6299C136.293 23.5824 136.181 23.551 136.066 23.5366C135.854 23.5299 135.654 23.445 135.509 23.3005C135.377 23.1642 135.305 22.9859 135.309 22.802V22.2869H135.964V22.6704C135.958 22.7576 135.985 22.8439 136.039 22.915C136.124 22.9892 136.232 23.0352 136.348 23.0457C136.484 23.0873 136.618 23.1369 136.748 23.1941C136.952 23.2846 137.137 23.4074 137.296 23.5571C137.499 23.7486 137.663 23.9736 137.778 24.2207C137.926 24.5509 137.997 24.9072 137.984 25.2651C137.984 25.5456 137.93 25.8238 137.825 26.0865C137.72 26.353 137.556 26.5958 137.343 26.7986C137.107 27.0177 136.825 27.1887 136.515 27.3007C136.136 27.4357 135.732 27.501 135.326 27.493C135.032 27.4891 134.739 27.4578 134.451 27.3997C134.129 27.3382 133.821 27.2228 133.543 27.059C133.252 26.886 133.007 26.6529 132.827 26.3777C132.619 26.0372 132.519 25.649 132.537 25.2577V20.8859H133.229V25.1793L133.233 25.1746ZM141.91 20.8813C141.901 21.1359 141.97 21.3876 142.11 21.6065C142.244 21.8022 142.409 21.9788 142.597 22.131C142.791 22.2884 143.002 22.444 143.229 22.5976C143.462 22.757 143.675 22.9419 143.861 23.1483C144.067 23.3812 144.232 23.6438 144.348 23.9258C144.492 24.2936 144.559 24.6834 144.548 25.0748C144.55 25.3944 144.507 25.7128 144.421 26.0221C144.344 26.3017 144.204 26.5625 144.009 26.7865C143.803 27.0125 143.541 27.1881 143.246 27.2979C142.473 27.5529 141.629 27.5483 140.859 27.2849C140.539 27.1624 140.255 26.9704 140.03 26.7248C139.81 26.4786 139.648 26.1926 139.553 25.8849C139.447 25.54 139.395 25.1825 139.399 24.8237V24.1862H140.091V24.8153C140.087 25.1063 140.13 25.3963 140.217 25.6758C140.293 25.9201 140.419 26.1485 140.587 26.3488C140.751 26.5392 140.961 26.6905 141.2 26.7902C141.473 26.9003 141.768 26.9541 142.066 26.9479C142.352 26.9556 142.636 26.9112 142.904 26.8172C143.119 26.7389 143.309 26.6104 143.456 26.4439C143.602 26.2674 143.704 26.0632 143.756 25.8457C143.822 25.5811 143.853 25.31 143.85 25.0384C143.862 24.7022 143.794 24.3677 143.65 24.0593C143.523 23.8078 143.354 23.5766 143.15 23.3742C142.95 23.1792 142.731 23.0023 142.495 22.846C142.264 22.6936 142.045 22.5258 141.84 22.3438C141.641 22.1667 141.472 21.9621 141.34 21.7371C141.198 21.4749 141.129 21.1834 141.14 20.8897L141.91 20.8813ZM148.275 20.8813C148.266 21.1359 148.335 21.3877 148.475 21.6065C148.609 21.8022 148.773 21.9788 148.962 22.131C149.156 22.2884 149.367 22.444 149.594 22.5976C149.827 22.7571 150.039 22.942 150.225 23.1483C150.431 23.3811 150.596 23.6437 150.712 23.9258C150.855 24.2936 150.923 24.6835 150.912 25.0748C150.914 25.3944 150.872 25.7128 150.785 26.0221C150.708 26.3017 150.568 26.5625 150.373 26.7865C150.167 27.0126 149.905 27.1881 149.61 27.2979C148.837 27.5529 147.993 27.5483 147.223 27.2849C146.903 27.1623 146.619 26.9703 146.395 26.7248C146.175 26.4786 146.012 26.1927 145.917 25.8849C145.811 25.5399 145.759 25.1825 145.763 24.8237V24.1862H146.455V24.8153C146.451 25.1064 146.494 25.3964 146.582 25.6758C146.658 25.9202 146.784 26.1486 146.952 26.3488C147.116 26.5394 147.326 26.6907 147.565 26.7902C147.838 26.9002 148.133 26.954 148.431 26.9479C148.717 26.9554 149.001 26.911 149.269 26.8172C149.484 26.7388 149.674 26.6103 149.821 26.4439C149.967 26.2674 150.069 26.0632 150.121 25.8457C150.187 25.5811 150.218 25.31 150.215 25.0384C150.227 24.7022 150.159 24.3677 150.015 24.0593C149.888 23.8076 149.719 23.5764 149.515 23.3742C149.315 23.1792 149.096 23.0023 148.86 22.846C148.629 22.6936 148.41 22.5258 148.205 22.3438C148.006 22.1667 147.837 21.9621 147.705 21.7371C147.563 21.4749 147.494 21.1834 147.505 20.8897L148.275 20.8813ZM152.122 25.0748C152.121 24.7649 152.178 24.4572 152.291 24.1656C152.4 23.8795 152.574 23.6187 152.801 23.4013C153.046 23.1724 153.339 22.9937 153.662 22.8767C154.052 22.7386 154.467 22.6721 154.884 22.6808C155.129 22.6833 155.373 22.7066 155.614 22.7507C155.681 22.4903 155.719 22.2242 155.727 21.9565C155.728 21.8704 155.703 21.7858 155.654 21.7129C155.605 21.64 155.535 21.582 155.451 21.5458C155.225 21.444 154.976 21.3959 154.726 21.4058C154.469 21.3934 154.212 21.4432 153.982 21.5505C153.898 21.5931 153.828 21.657 153.78 21.7349C153.733 21.8128 153.711 21.9016 153.715 21.991H152.994C152.989 21.8147 153.038 21.6407 153.134 21.4889C153.227 21.3467 153.356 21.2271 153.508 21.1398C153.673 21.0463 153.853 20.9785 154.041 20.9391C154.243 20.8952 154.45 20.8733 154.658 20.8738C155.098 20.8532 155.535 20.9566 155.912 21.1706C156.055 21.25 156.173 21.3626 156.255 21.4974C156.337 21.6322 156.38 21.7846 156.38 21.9397C156.376 22.2757 156.329 22.61 156.24 22.9355C156.686 23.1159 157.058 23.4271 157.298 23.8222C157.527 24.205 157.647 24.637 157.644 25.0757C157.645 25.3853 157.588 25.6926 157.475 25.9838C157.365 26.2719 157.191 26.5351 156.965 26.7566C156.723 26.9902 156.429 27.172 156.104 27.2895C155.314 27.5518 154.451 27.5518 153.661 27.2895C153.336 27.172 153.042 26.9901 152.8 26.7566C152.574 26.535 152.4 26.2718 152.29 25.9838C152.177 25.6926 152.12 25.3852 152.121 25.0757L152.122 25.0748ZM152.814 25.0748C152.811 25.3296 152.859 25.5827 152.954 25.8214C153.042 26.0417 153.178 26.2425 153.354 26.4112C153.537 26.5819 153.757 26.7132 154 26.7958C154.569 26.9763 155.186 26.9763 155.755 26.7958C155.999 26.7139 156.221 26.5826 156.405 26.4112C156.58 26.2425 156.717 26.0417 156.805 25.8214C156.992 25.3358 156.992 24.8043 156.805 24.3187C156.717 24.0953 156.576 23.8929 156.394 23.726C156.212 23.5592 155.993 23.432 155.752 23.3536C155.183 23.1729 154.566 23.1729 153.997 23.3536C153.755 23.4357 153.535 23.5653 153.351 23.7336C153.175 23.9001 153.038 24.0995 152.951 24.3187C152.855 24.5589 152.807 24.8137 152.811 25.0701L152.814 25.0748ZM163.241 23.0046C163.261 22.7836 163.231 22.561 163.152 22.3518C163.073 22.1425 162.947 21.9515 162.783 21.7913C162.395 21.5073 161.908 21.3688 161.417 21.403C161.111 21.3909 160.805 21.4353 160.517 21.5337C160.328 21.6032 160.16 21.7157 160.03 21.8612C159.925 21.984 159.852 22.1273 159.815 22.2803C159.781 22.4291 159.751 22.5644 159.726 22.6863H159.089C159.096 22.6048 159.108 22.5028 159.127 22.3802C159.148 22.2489 159.184 22.12 159.234 21.9957C159.292 21.8538 159.367 21.7188 159.459 21.5934C159.566 21.4501 159.702 21.3272 159.859 21.2313C160.052 21.1134 160.263 21.0249 160.486 20.969C160.782 20.8966 161.088 20.8627 161.394 20.8682C161.697 20.8692 161.998 20.9005 162.294 20.9615C162.587 21.0187 162.865 21.1283 163.113 21.2845C163.365 21.4476 163.569 21.6667 163.707 21.9219C163.872 22.2446 163.95 22.5998 163.936 22.957V25.2455C163.953 25.6347 163.86 26.0212 163.665 26.3656C163.5 26.6381 163.269 26.8713 162.991 27.0469C162.732 27.209 162.443 27.3245 162.139 27.3875C161.875 27.4452 161.605 27.4765 161.334 27.4808C160.948 27.4905 160.564 27.4204 160.211 27.2755C159.914 27.149 159.651 26.9606 159.444 26.7248C159.242 26.4915 159.092 26.2227 159.004 25.9343C158.91 25.6311 158.862 25.3168 158.864 25.001H159.556C159.52 25.5178 159.692 26.0285 160.038 26.4337C160.207 26.6046 160.414 26.7386 160.644 26.8262C160.875 26.9138 161.123 26.9529 161.372 26.9405C161.657 26.9463 161.941 26.897 162.205 26.7958C162.428 26.7092 162.627 26.5779 162.79 26.4112C162.944 26.2487 163.06 26.058 163.131 25.8513C163.206 25.6311 163.244 25.4012 163.243 25.17V23.0046H163.241ZM166.012 25.2577C166.009 25.485 166.054 25.7106 166.143 25.9222C166.23 26.125 166.364 26.3072 166.536 26.4551C166.724 26.6145 166.945 26.7364 167.186 26.8135C167.476 26.9053 167.78 26.9495 168.086 26.9442C168.611 26.97 169.129 26.8197 169.546 26.5204C169.733 26.3624 169.879 26.1666 169.973 25.948C170.067 25.7294 170.107 25.4936 170.089 25.2586C170.098 24.9746 170.044 24.692 169.929 24.4289C169.833 24.2194 169.683 24.0349 169.494 23.8913C169.301 23.7508 169.078 23.6523 168.839 23.6029C168.574 23.5464 168.302 23.5185 168.03 23.5198C167.759 23.5176 167.489 23.5545 167.23 23.629C166.995 23.6962 166.776 23.8076 166.589 23.9566C166.405 24.1063 166.259 24.293 166.163 24.5026C166.056 24.7415 166.003 24.9987 166.009 25.2577H166.012ZM169.999 20.9336V21.5103H167.481C167.182 21.5103 166.937 21.5147 166.747 21.5234C166.593 21.5231 166.441 21.555 166.302 21.6167C166.249 21.6454 166.202 21.6838 166.165 21.7297C166.128 21.7755 166.102 21.8279 166.087 21.8837C166.044 22.0583 166.025 22.2375 166.031 22.4166L166.05 23.8315C166.314 23.5811 166.624 23.3783 166.967 23.2333C167.353 23.0651 167.775 22.9802 168.202 22.985C168.513 22.9854 168.822 23.0205 169.124 23.0895C169.426 23.1565 169.71 23.2814 169.957 23.4564C170.213 23.642 170.419 23.8815 170.557 24.1554C170.722 24.5013 170.8 24.8776 170.786 25.2558C170.788 25.5476 170.734 25.8375 170.627 26.1117C170.523 26.377 170.358 26.6183 170.145 26.8191C169.91 27.035 169.627 27.2006 169.317 27.3045C168.935 27.4308 168.533 27.4915 168.128 27.4837C167.834 27.4807 167.542 27.4541 167.253 27.4043C166.933 27.3523 166.625 27.2474 166.345 27.0944C166.054 26.933 165.808 26.7091 165.629 26.4412C165.42 26.1049 165.319 25.7196 165.339 25.3314V22.5361C165.323 22.212 165.377 21.8881 165.498 21.584C165.585 21.3831 165.741 21.2154 165.943 21.1081C166.156 21.0064 166.391 20.9511 166.631 20.9466C166.898 20.9348 167.191 20.9289 167.511 20.9289L169.999 20.9336ZM171.999 24.1741C171.998 23.7775 172.068 23.3836 172.205 23.0083C172.338 22.6394 172.544 22.2972 172.813 21.9994C173.086 21.6983 173.418 21.4478 173.791 21.2611C174.201 21.0589 174.652 20.9411 175.115 20.9158V20.7852H175.77V20.9158C176.237 20.941 176.695 21.0553 177.113 21.2518C177.491 21.4326 177.828 21.6805 178.105 21.9817C178.377 22.28 178.586 22.6236 178.722 22.9944C179.009 23.7766 179.002 24.6269 178.703 25.4051C178.554 25.7951 178.325 26.1543 178.029 26.4626C177.724 26.7787 177.353 27.0329 176.939 27.2093C176.471 27.3937 175.968 27.4887 175.46 27.4887C174.953 27.4887 174.45 27.3937 173.982 27.2093C173.568 27.0336 173.198 26.7793 172.896 26.4626C172.603 26.1533 172.375 25.7943 172.227 25.4051C172.074 25.0103 171.997 24.5937 171.998 24.1741H171.999ZM175.115 21.4049C174.423 21.4658 173.785 21.7778 173.337 22.2738C173.114 22.5228 172.941 22.8074 172.827 23.1138C172.576 23.806 172.584 24.5572 172.85 25.2446C172.98 25.5714 173.176 25.8723 173.426 26.1313C173.672 26.3842 173.971 26.5864 174.306 26.7248C174.661 26.8708 175.046 26.944 175.434 26.9395C175.827 26.9443 176.216 26.8711 176.576 26.7248C176.913 26.5864 177.216 26.3843 177.465 26.1313C177.717 25.8731 177.914 25.5721 178.045 25.2446C178.185 24.8926 178.255 24.5197 178.251 24.1442C178.254 23.7947 178.192 23.4473 178.068 23.1175C177.954 22.8111 177.781 22.5266 177.558 22.2776C177.338 22.0349 177.072 21.8332 176.772 21.683C176.462 21.529 176.122 21.4339 175.772 21.403V24.7229H175.117V21.403L175.115 21.4049ZM184.297 22.2869C184.368 22.1083 184.469 21.9415 184.597 21.7931C184.742 21.6233 184.91 21.472 185.097 21.3433C185.293 21.2079 185.507 21.0963 185.733 21.011C186.109 20.8781 186.517 20.8449 186.912 20.915C187.306 20.9852 187.673 21.156 187.97 21.4086C188.318 21.851 188.487 22.3943 188.447 22.9421L188.353 27.3969H187.661L187.755 23.1511C187.787 22.6958 187.662 22.2429 187.399 21.8585C187.269 21.7056 187.1 21.5849 186.909 21.5071C186.717 21.4293 186.507 21.3968 186.299 21.4124C186.048 21.4091 185.801 21.4739 185.588 21.599C185.377 21.7254 185.2 21.8942 185.068 22.0928C184.919 22.3176 184.812 22.564 184.75 22.8217C184.676 23.1135 184.64 23.4123 184.642 23.7121V25.2847H183.942V23.7121C183.944 23.4124 183.908 23.1135 183.835 22.8217C183.773 22.564 183.665 22.3177 183.517 22.0928C183.385 21.8942 183.207 21.7254 182.997 21.599C182.784 21.4739 182.537 21.4091 182.286 21.4124C182.078 21.3976 181.87 21.4305 181.679 21.5083C181.488 21.5861 181.321 21.7063 181.191 21.8585C180.927 22.2428 180.803 22.6958 180.835 23.1511L180.929 27.3969H180.236L180.142 22.9421C180.102 22.3942 180.271 21.8509 180.62 21.4086C180.917 21.156 181.283 20.9852 181.678 20.915C182.073 20.8449 182.481 20.8781 182.857 21.011C183.083 21.0962 183.298 21.2078 183.494 21.3433C183.681 21.472 183.849 21.6232 183.994 21.7931C184.127 21.9409 184.231 22.1101 184.3 22.2925L184.297 22.2869Z"
        fill="white" />
</svg>
    